<?xml version="1.0" encoding="UTF-8"?><svg id="Capa_2" xmlns="http://www.w3.org/2000/svg" viewBox="0 0 101.53 78.1"><defs><style>.cls-1{fill:#fff;stroke-width:0px;}</style></defs><g id="Capa_1-2"><path class="cls-1" d="m101.48,24.09c-.04-7.41-6.57-13.95-13.97-13.99-.72,0-1.44-.03-2.16-.05-1.81-.06-3.69-.11-5.58.11-5.22.62-7.79-.56-9.51-4.36C67.79.33,62.61-.12,58.93.02c-5.11.2-10.35.15-15.41.11-2.17-.02-4.34-.04-6.51-.04-.08,0-.17,0-.25.02-.38-.05-.77.01-1.14.19-3.33,1.66-5.84,4.34-7.46,7.97-.58,1.3-1.44,2.06-4.02,1.89-2.66-.18-5.33-.14-7.92-.1-1.07.02-2.15.03-3.22.03C4.75,10.11,0,14.84,0,23.1v6.17C0,41.38,0,53.49.01,65.6c0,7.59,4.91,12.49,12.49,12.49,12.5,0,25,0,37.5,0s25,0,37.5,0c7.41,0,13.94-6.54,13.98-13.99.07-13.28.07-26.74,0-40.02Zm-4,40c-.03,5.23-4.78,10-9.98,10-25,.01-50,.01-75,0-5.39,0-8.49-3.1-8.5-8.5-.01-12.11-.01-24.22,0-36.33v-6.17c0-6.05,2.95-8.99,9-9,1.09,0,2.18-.02,3.28-.04,1.09-.02,2.19-.03,3.3-.03,1.44,0,2.88.03,4.28.13,3.89.27,6.57-1.16,7.94-4.25,1.18-2.64,2.88-4.55,5.19-5.8h.01c2.16,0,4.32.02,6.48.04,5.11.04,10.39.08,15.59-.11,4.19-.16,6.37.83,7.54,3.43,3.15,6.99,8.94,7.25,13.63,6.69,1.59-.19,3.24-.14,4.98-.08.76.02,1.51.05,2.27.05,5.2.03,9.96,4.8,9.99,10.01.07,13.26.07,26.72,0,39.98Z"/><path class="cls-1" d="m49.98,18.1c-.67,0-1.34,0-2.01,0h-.97c-.08,0-.17,0-.25.01-.24-.03-.48-.02-.73.04-11.02,2.69-17.9,8.85-21.01,18.82-3.46,11.1,1.49,25.9,15.76,31.47,3.05,1.19,6.21,1.76,9.33,1.76,9.13,0,17.92-4.85,22.54-13.19,4.73-8.52,4.67-18.04-.16-26.12-4.79-8.01-13.41-12.91-22.52-12.8Zm19.18,36.98c-5.24,9.44-16.82,13.59-26.92,9.64-11.94-4.66-16.25-17.41-13.4-26.55,2.68-8.58,8.38-13.7,17.95-16.08.07,0,.14.01.21.01h.95c.69,0,1.38,0,2.08,0,7.69-.1,14.97,4.06,19.03,10.85,4.08,6.83,4.11,14.89.1,22.13Z"/><path class="cls-1" d="m55.62,28.09c-2.5-.77-4.84-.96-7.59-1-.1,0-.19,0-.28.02-.27-.03-.56-.01-.84.07-9.46,2.93-14.23,8.98-13.78,17.51.49,9.29,5.71,14.92,15.11,16.26.75.11,1.51.16,2.28.16,6.75,0,14.15-4.18,16.31-14.13,1.85-8.52-4.42-16.8-11.21-18.9Zm7.3,18.05c-1.88,8.63-8.44,11.67-14.12,10.85-7.47-1.07-11.29-5.17-11.68-12.51-.35-6.6,3.16-10.99,10.71-13.4.05,0,.09,0,.14,0,2.41.03,4.43.19,6.47.82,5.12,1.58,9.83,8,8.48,14.23Z"/></g></svg>