<?xml version="1.0" encoding="UTF-8"?><svg id="Capa_2" xmlns="http://www.w3.org/2000/svg" viewBox="0 0 95.96 95.95"><defs><style>.cls-1{fill:#fff;stroke-width:0px;}</style></defs><g id="Capa_1-2"><path class="cls-1" d="m95.2,39.99C92.2,20.93,76.79,4.88,57.79,1.08c-2-.4-4.05-.55-6.07-.83-.36-.05-.7-.17-1.05-.25h-5.42c-1.73.25-3.47.47-5.2.75C21.1,3.86,5.77,18.19,1.3,36.94c-5.43,22.76,6.63,46.42,28.18,55.32,25.88,10.68,55.07-2.63,63.98-29.19,1.23-3.67,2.01-7.43,2.26-11.29.03-.44.16-.87.25-1.31v-5.17c-.26-1.77-.49-3.54-.77-5.31Zm-47.32,48.7c-22.46-.03-40.63-18.27-40.6-40.75.03-22.46,18.26-40.62,40.75-40.6,22.47.03,40.63,18.26,40.6,40.75-.03,22.47-18.26,40.63-40.75,40.6Z"/><path class="cls-1" d="m55.78,70.31c0-9.35,0-18.71,0-28.06v-1.54c-7.57.27-15.01.54-22.49.8v3.4c1.91.12,3.67.12,5.41.38,1.65.24,2.44,1.18,2.45,2.74.03,7.59.04,15.18,0,22.77,0,1.96-.81,2.73-2.77,2.89-1.45.12-2.91.17-4.33.24v3.5h28.55v-3.51c-1.28-.07-2.51-.09-3.72-.21-2.59-.27-3.1-.86-3.1-3.41Z"/><path class="cls-1" d="m47.04,34.97c4.55,0,8.23-3.66,8.24-8.18,0-4.49-3.71-8.24-8.21-8.27-4.56-.03-8.26,3.69-8.24,8.3.01,4.58,3.62,8.16,8.21,8.15Z"/></g></svg>