<?xml version="1.0" encoding="UTF-8"?><svg id="Capa_2" xmlns="http://www.w3.org/2000/svg" viewBox="0 0 133.8 67.83"><defs><style>.cls-1{fill:#333;}</style></defs><g id="Capa_1-2"><path class="cls-1" d="m133.8,67.79c-.16.06-.3.03-.43.03-2.09,0-4.18,0-6.26,0-.33,0-.52-.09-.64-.4-.31-.85-.64-1.7-.97-2.54-.29-.73-.58-1.46-.87-2.19-.35-.88-.68-1.77-1.03-2.65-.38-.98-.78-1.95-1.16-2.93-.41-1.05-.82-2.11-1.23-3.17-.38-.98-.78-1.95-1.16-2.93-.41-1.05-.82-2.11-1.23-3.17-.38-.98-.78-1.95-1.16-2.93-.41-1.05-.81-2.11-1.23-3.17-.38-.98-.78-1.95-1.16-2.93-.17-.42-.33-.85-.48-1.27-.02-.06,0-.14-.1-.15-.1-.01-.1.08-.12.13-.19.45-.37.91-.55,1.37-.61,1.54-1.22,3.09-1.83,4.63-.91,2.29-1.81,4.58-2.72,6.87-.6,1.52-1.2,3.03-1.81,4.55-.44,1.11-.89,2.22-1.32,3.34-.09.22-.19.31-.44.31-2.16,0-4.31,0-6.47,0-.07,0-.14,0-.21,0-.12,0-.12-.07-.12-.16,0-.07.03-.13.05-.19.31-.9.67-1.77,1-2.66.28-.77.57-1.52.84-2.29.26-.77.58-1.52.87-2.28.19-.48.36-.97.54-1.46.32-.84.64-1.67.95-2.51.27-.71.52-1.43.79-2.14.31-.83.63-1.65.94-2.47.17-.46.36-.92.52-1.38.34-.94.7-1.87,1.04-2.81.64-1.74,1.29-3.48,1.94-5.22.12-.33.12-.33.54-.33,2.45,0,4.89,0,7.34,0,1.26,0,2.53,0,3.79,0,.35,0,.36,0,.49.34.47,1.25.94,2.49,1.41,3.74.58,1.55,1.17,3.11,1.75,4.66.54,1.44,1.08,2.87,1.62,4.31.59,1.57,1.18,3.13,1.77,4.7.46,1.21.91,2.42,1.37,3.63.59,1.57,1.18,3.13,1.76,4.7.53,1.4,1.05,2.8,1.57,4.2.59,1.56,1.18,3.13,1.77,4.69.01.04.01.08.03.15"/><path class="cls-1" d="m116.05.89c.27.9.65,1.76.96,2.65.48,1.32.98,2.63,1.47,3.95.71,1.9,1.43,3.8,2.14,5.7.24.64.48,1.28.7,1.92.09.28.24.45.53.55.99.34,1.98.69,2.97,1.05,1.65.6,3.31,1.2,4.96,1.8.04.01.08,0,.12.01,0,.05,0,.11,0,.16-.69.29-1.38.58-2.08.86-1.16.48-2.32.95-3.48,1.42-.23.09-.47.14-.7.33,1.4,3.74,2.8,7.49,4.2,11.24-.02.01-.03.02-.05.03-.36-.3-.73-.59-1.09-.89-.64-.53-1.28-1.06-1.91-1.6-.6-.5-1.19-1.01-1.78-1.51-.71-.6-1.42-1.19-2.13-1.79-.6-.5-1.2-.99-1.79-1.49-.56-.46-1.11-.93-1.66-1.4-.11-.1-.2-.1-.33-.05-.61.22-1.23.43-1.85.65-1.26.45-2.51.9-3.76,1.36-.88.33-1.77.63-2.64.96-.84.32-1.69.6-2.54.9-1.05.37-2.1.75-3.15,1.12-.08.03-.15.07-.26.05-.03-.14-.01-.27.04-.41.44-1.16.86-2.33,1.29-3.49.69-1.85,1.38-3.69,2.06-5.53.14-.37.26-.74.4-1.1.04-.11.06-.2-.03-.29-.15-.16-.29-.33-.43-.49-.51-.54-1.04-1.06-1.51-1.63-.31-.37-.68-.67-.97-1.05-.31-.4-.72-.71-1.02-1.11-.28-.38-.67-.64-.94-1.02-.37-.52-.93-.88-1.27-1.43-.1-.17-.3-.28-.44-.43-.45-.47-.89-.96-1.34-1.44,0-.07,0-.13,0-.2,2.02.42,4.04.84,6.06,1.26,1.75.36,3.51.72,5.26,1.07.05,0,.11,0,.16,0,.05,0,.08-.02.08-.07.02-.14.09-.26.17-.37.23-.34.39-.72.58-1.08.42-.8.85-1.58,1.26-2.38.42-.81.82-1.63,1.26-2.43.42-.76.81-1.54,1.22-2.31.37-.69.74-1.39,1.11-2.09.05,0,.11.02.16.03"/><path class="cls-1" d="m55.44,44.46c-.28-.24-.51-.46-.75-.66-2.14-1.82-5.43-1.85-7.61-.08-2.83,2.31-2.63,6.51.45,8.5,1.98,1.29,4.07,1.32,6.19.27.26-.13.36-.3.33-.58-.02-.16,0-.33,0-.49,0-.33,0-.33-.35-.33-.6,0-1.21,0-1.81,0-.38,0-.38,0-.38-.39,0-1.68,0-3.35,0-5.03,0-.37,0-.37.39-.37,2.53,0,5.06,0,7.58,0,.39,0,.38-.02.38.39,0,4.18,0,8.35,0,12.53,0,.05,0,.11,0,.16.01.18-.06.25-.24.24-.3,0-.6,0-.91,0-1.39,0-2.77,0-4.16,0-.34,0-.67.01-1.01.09-1.58.35-3.17.36-4.77.12-1.47-.22-2.81-.74-4.08-1.5-.4-.23-.8-.47-1.13-.79-.53-.5-1.12-.94-1.58-1.53-.37-.48-.79-.94-1.1-1.46-.59-1-1.09-2.05-1.32-3.2-.25-1.27-.33-2.54-.21-3.83.09-.96.33-1.88.67-2.78.28-.73.65-1.42,1.11-2.06.51-.7,1.03-1.4,1.68-1.99,1.5-1.39,3.26-2.31,5.25-2.77,2.07-.49,4.12-.44,6.16.18,1.72.52,3.23,1.37,4.56,2.58.03.03.06.06.09.09q.46.39.06.82c-1.1,1.2-2.2,2.41-3.31,3.62-.06.07-.11.15-.19.25"/><path class="cls-1" d="m27.34,59.02c-.65,0-1.28-.09-1.92-.16-.99-.11-1.9-.45-2.77-.87-1.24-.6-2.32-1.43-3.24-2.46-.73-.83-1.37-1.72-1.84-2.72-.36-.76-.69-1.54-.82-2.37-.22-1.35-.35-2.71-.16-4.09.11-.83.24-1.66.55-2.45.44-1.11.96-2.18,1.72-3.11.4-.5.82-.99,1.3-1.41,1.6-1.41,3.44-2.29,5.54-2.64,1.87-.3,3.69-.09,5.44.6,1.93.76,3.52,1.97,4.75,3.65,1.11,1.51,1.82,3.19,2.12,5.04.27,1.68.16,3.33-.31,4.96-.39,1.35-1.02,2.58-1.84,3.71-.75,1.02-1.67,1.86-2.72,2.58-.8.55-1.67.94-2.59,1.26-1.04.35-2.11.48-3.2.48m-5.03-11.62c0,1.45.23,2.33.73,3.25,1.52,2.75,4.99,3.43,7.37,1.45,2.6-2.16,2.58-6.49-.07-8.59-1.62-1.28-3.42-1.49-5.24-.52-1.89,1.01-2.71,2.71-2.79,4.4"/><path class="cls-1" d="m72.04,59.01c-.7,0-1.31-.09-1.93-.15-.99-.11-1.9-.44-2.77-.87-.8-.39-1.58-.85-2.21-1.5-.19-.19-.43-.33-.62-.53-.36-.35-.64-.78-.97-1.15-.56-.63-.95-1.35-1.32-2.09-.31-.62-.57-1.28-.7-1.95-.3-1.48-.45-2.97-.24-4.49.11-.81.26-1.6.54-2.37.25-.7.57-1.36.96-1.99.21-.35.43-.69.67-1.02.84-1.1,1.83-2.03,3.01-2.74,1.3-.79,2.72-1.27,4.23-1.47,1.87-.24,3.68.04,5.41.78,1.31.56,2.48,1.34,3.47,2.36,1.44,1.48,2.4,3.23,2.91,5.23.4,1.57.46,3.14.17,4.73-.37,2.07-1.24,3.91-2.62,5.51-1.04,1.21-2.28,2.17-3.74,2.82-.53.24-1.07.49-1.64.61-.89.2-1.79.33-2.63.29m.36-16.59c-1.64,0-2.74.45-3.66,1.3-2.32,2.15-2.33,6.02-.02,8.18,1.85,1.74,4.7,1.76,6.54.05,2.01-1.87,2.37-5.03.82-7.3-.97-1.42-2.31-2.19-3.68-2.23"/><path class="cls-1" d="m0,47.68v-10.18c0-.1,0-.19,0-.29,0-.15.04-.23.21-.22.1,0,.19,0,.29,0,2.47,0,4.94,0,7.42,0,1.57,0,2.99.43,4.26,1.35.7.51,1.28,1.15,1.73,1.9.69,1.15,1.05,2.39,1,3.74-.04,1.04-.35,2.01-.84,2.92-.2.37-.2.31.03.6,1.05,1.35,1.63,2.87,1.52,4.6-.13,1.89-.93,3.45-2.35,4.71-.66.58-1.42.98-2.24,1.28-.72.26-1.46.34-2.2.34-2.82,0-5.63,0-8.45,0-.35,0-.36,0-.36-.37,0-2.18,0-4.37,0-6.55v-3.83m5.43,4.04c0,.59,0,1.18,0,1.77,0,.3,0,.31.29.31,1.07,0,2.14.01,3.21,0,.59-.01,1.1-.24,1.49-.68.58-.64.72-1.39.38-2.18-.35-.82-1.01-1.25-1.9-1.27-1.06-.02-2.11,0-3.17,0-.3,0-.3,0-.3.3,0,.59,0,1.18,0,1.77m0-8.02c0,.59,0,1.18,0,1.77,0,.29,0,.3.3.3.52,0,1.04,0,1.56,0,.4,0,.8.02,1.19-.03.86-.12,1.8-.87,1.77-2.1-.02-1.08-.92-1.95-1.99-1.98-.85-.02-1.7,0-2.55,0-.28,0-.28,0-.29.31,0,.58,0,1.15,0,1.73"/><path class="cls-1" d="m93.24,36.72c3.17,0,6.35,0,9.52,0,.51,0,.46-.05.46.46,0,1.88,0,3.77,0,5.65,0,.1,0,.19,0,.29,0,.1-.06.15-.16.15-.11,0-.22,0-.33,0h-5.52c-.1,0-.19,0-.29,0-.15,0-.23.06-.22.22,0,.11,0,.22,0,.33,0,4.77,0,9.54,0,14.31,0,.57.06.5-.51.5-1.95,0-3.9,0-5.85.01-.1,0-.19,0-.29,0-.16,0-.23-.06-.22-.22,0-.11,0-.22,0-.33v-14.43c0-.39,0-.39-.38-.39-.54,0-1.07,0-1.61,0-1.4,0-2.8,0-4.21,0-.38,0-.38,0-.38-.39v-5.77c0-.06,0-.11,0-.17,0-.15.05-.23.21-.23.11,0,.22,0,.33,0h9.44Z"/><path class="cls-1" d="m126.76.16c.06.43.22.84.34,1.26.14.51.29,1.03.43,1.54.06.23.18.35.44.4.92.17,1.84.38,2.76.58.02,0,.03.04.07.07-.2.21-.46.34-.71.5-.6.38-1.19.76-1.79,1.14-.14.09-.11.18-.06.32.3.82.58,1.65.87,2.47.04.12.08.25.14.45-.42-.22-.7-.5-1-.74-.51-.4-1.02-.81-1.53-1.23-.14-.11-.21-.12-.38,0-.91.61-1.84,1.19-2.76,1.79-.13.08-.26.15-.41.19-.03-.13-.02-.24.03-.36.32-.83.63-1.66.95-2.49.07-.19.04-.3-.1-.46-1.06-1.14-2.18-2.24-3.27-3.35-.11-.11-.27-.2-.25-.4.12-.08.23,0,.35.02,1.28.27,2.56.55,3.84.81.29.06.35.03.5-.22.42-.72.83-1.43,1.25-2.15.03-.05.04-.1.06-.15.08-.03.15,0,.22.03"/><path class="cls-1" d="m94.63,24.78c.26-.89.63-1.75.95-2.62.08-.21.09-.35-.09-.53-.45-.43-.89-.86-1.3-1.32-.62-.7-1.3-1.33-1.94-2.01-.06-.07-.16-.12-.13-.26.23-.04.45.06.66.11,1.19.25,2.37.51,3.56.77.35.08.37.05.56-.3.36-.67.61-1.39.99-2.05.03-.06.07-.11.14-.23.17.59.32,1.11.47,1.62.12.42.23.84.35,1.26.05.16.14.26.34.3.92.18,1.83.39,2.79.59-.2.27-.46.38-.69.53-.54.35-1.08.68-1.62,1.02-.14.09-.21.19-.14.37.18.5.35,1,.52,1.51.14.4.27.79.43,1.25-.41-.14-.64-.42-.91-.63-.48-.37-.94-.78-1.42-1.16-.21-.17-.32-.16-.59.02-.9.58-1.8,1.17-2.7,1.75-.02.01-.05.02-.08.03-.05,0-.11-.02-.16-.03"/><path class="cls-1" d="m129.91,18.68c0-.05,0-.11,0-.16.07,0,.19-.02.2.06.01.14-.12.09-.2.1"/><path class="cls-1" d="m94.63,24.78c.05,0,.11.02.16.03-.02.09-.07.16-.17.12-.09-.04-.06-.1,0-.15"/><path class="cls-1" d="m126.76.16c-.07-.03-.14-.06-.22-.03.02-.08.07-.15.16-.13.09.01.07.1.06.16"/><path class="cls-1" d="m98.73,9.24c0,.07,0,.13,0,.2-.08-.03-.14-.09-.12-.18.01-.07.07-.07.12-.02"/><path class="cls-1" d="m116.05.89c-.05,0-.11-.02-.16-.03,0-.05.02-.11.08-.11.09,0,.08.08.08.14"/><path class="cls-1" d="m110.29,11.51c0,.05-.03.08-.08.07l.08-.07Z"/></g></svg>