<?xml version="1.0" encoding="utf-8"?>
<!-- Generator: Adobe Illustrator 27.9.0, SVG Export Plug-In . SVG Version: 6.00 Build 0)  -->
<svg version="1.1" id="Capa_1" xmlns="http://www.w3.org/2000/svg" xmlns:xlink="http://www.w3.org/1999/xlink" x="0px" y="0px"
	 viewBox="0 0 103 163.4" style="enable-background:new 0 0 103 163.4;" xml:space="preserve">
<style type="text/css">
	.st0{clip-path:url(#SVGID_00000013176977340344872050000008049427008669904535_);}
	.st1{fill:url(#SVGID_00000039847539456573042750000011323863268396589222_);}
	.st2{clip-path:url(#SVGID_00000016775242664414564920000012235108906308900279_);}
	.st3{fill:url(#SVGID_00000043435879794500712980000008125378561566996402_);}
	.st4{clip-path:url(#SVGID_00000077320135113068148590000010423656375318581923_);}
	.st5{fill:url(#SVGID_00000140723718206466041850000011439939387987987604_);}
	.st6{fill:#FFFFFF;}
</style>
<g>
	<defs>
		<polygon id="SVGID_1_" points="52.6,20.1 37.3,17 48.1,28.7 43.5,41.9 61.9,36 75.7,47.7 70.2,32.8 78.7,29.3 67.4,25.2 60.1,5.9 
					"/>
	</defs>
	<clipPath id="SVGID_00000053506345287335069760000003588549773731579309_">
		<use xlink:href="#SVGID_1_"  style="overflow:visible;"/>
	</clipPath>
	<g style="clip-path:url(#SVGID_00000053506345287335069760000003588549773731579309_);">
		
			<linearGradient id="SVGID_00000078759374482667043180000004130431143471814829_" gradientUnits="userSpaceOnUse" x1="-611.552" y1="-2187.8162" x2="-610.552" y2="-2187.8162" gradientTransform="matrix(41.36 0 0 41.36 25331.8867 90514.8594)">
			<stop  offset="0" style="stop-color:#DBAC40"/>
			<stop  offset="0" style="stop-color:#DBAC40"/>
			<stop  offset="0.43" style="stop-color:#FFC363"/>
			<stop  offset="0.69" style="stop-color:#EAC476"/>
			<stop  offset="1" style="stop-color:#DFB045"/>
		</linearGradient>
		
			<rect x="37.3" y="5.9" style="fill:url(#SVGID_00000078759374482667043180000004130431143471814829_);" width="41.4" height="41.8"/>
	</g>
</g>
<g>
	<defs>
		<polygon id="SVGID_00000002382385931767306030000009669168275311413651_" points="72,8.5 65.8,7.2 71,12.5 69.4,16.8 74,13.8 
			77.6,16.7 76.1,12.5 79.7,10.2 75.4,9.2 74.1,4.9 		"/>
	</defs>
	<clipPath id="SVGID_00000079485143429066600120000011973624547484148881_">
		<use xlink:href="#SVGID_00000002382385931767306030000009669168275311413651_"  style="overflow:visible;"/>
	</clipPath>
	<g style="clip-path:url(#SVGID_00000079485143429066600120000011973624547484148881_);">
		
			<linearGradient id="SVGID_00000072240305392799904680000012058826157979008652_" gradientUnits="userSpaceOnUse" x1="-607.4009" y1="-2180.5708" x2="-606.4009" y2="-2180.5708" gradientTransform="matrix(13.91 0 0 13.91 8516.1377 30342.5918)">
			<stop  offset="0" style="stop-color:#DBAC40"/>
			<stop  offset="0" style="stop-color:#DBAC40"/>
			<stop  offset="0.43" style="stop-color:#FFC363"/>
			<stop  offset="0.69" style="stop-color:#EAC476"/>
			<stop  offset="1" style="stop-color:#DFB045"/>
		</linearGradient>
		
			<rect x="65.8" y="4.9" style="fill:url(#SVGID_00000072240305392799904680000012058826157979008652_);" width="13.9" height="11.9"/>
	</g>
</g>
<g>
	<defs>
		<polygon id="SVGID_00000163037525917855572730000018369264607892020889_" points="31.1,30.9 25.1,29.6 29.8,34.4 28.3,38.3 
			32.5,35.6 35.6,38.1 34.4,34.4 37.7,32.3 33.8,31.4 32.6,27.5 		"/>
	</defs>
	<clipPath id="SVGID_00000141457369211107180070000013374071661489721730_">
		<use xlink:href="#SVGID_00000163037525917855572730000018369264607892020889_"  style="overflow:visible;"/>
	</clipPath>
	<g style="clip-path:url(#SVGID_00000141457369211107180070000013374071661489721730_);">
		
			<linearGradient id="SVGID_00000158028041876858940980000016753807126722148994_" gradientUnits="userSpaceOnUse" x1="-606.7342" y1="-2179.0029" x2="-605.7342" y2="-2179.0029" gradientTransform="matrix(12.57 0 0 12.57 7652.1235 27422.9609)">
			<stop  offset="0" style="stop-color:#DBAC40"/>
			<stop  offset="0" style="stop-color:#DBAC40"/>
			<stop  offset="0.43" style="stop-color:#FFC363"/>
			<stop  offset="0.69" style="stop-color:#EAC476"/>
			<stop  offset="1" style="stop-color:#DFB045"/>
		</linearGradient>
		
			<rect x="25.1" y="27.5" style="fill:url(#SVGID_00000158028041876858940980000016753807126722148994_);" width="12.6" height="10.8"/>
	</g>
</g>
<g>
	<path class="st6" d="M98.5,66.3l0.2,0c-2.4-15-11.1-26.7-23.1-33.5l-2,1.6l5.6,17.6L61.4,38.5l-21.3,6.8l5.4-16.1l-1.6-2
		c-1.3,0.2-2.2,0.4-3.5,0.7c-2,0.5-3.6,1.2-5.5,2c1.1,0.7,5.8,1.7,5.8,1.7l-3.9,3.3l0.5,5.4l-5.2-2l-6.1,3.2l1.6-6.4
		c0,0-0.3-0.5-1.1-1.2c-12.8,8-21.4,22-21.9,38.3c-0.1,2.8,0.1,5.8,0.5,8.7l0.1,0c1.3,8.9,4.4,17.3,8.3,25.4
		c7.3,15.2,16.8,28.9,28.2,41.4c3.3,3.7,6.4,7.6,9.5,11.4v-58.9h21.9c7.8,0,14.1,2.3,17.5,6.8c2-4.4,3.8-8.9,5.2-13.6
		C98.6,84.6,99.9,75.6,98.5,66.3 M51.9,95.1c-10.7,0-19.4-7.9-21-18.2c-0.2-1.1-0.2-2.2-0.2-3.4c0-11.8,9.6-21.4,21.3-21.4
		c10.7,0,19.5,7.9,21.1,18.2l0,0c0.2,1.1,0.2,2.2,0.2,3.3C73.3,85.5,63.7,95.1,51.9,95.1"/>
	<path class="st6" d="M54.4,104H74c10.7,0,18.1,5,18.1,14.6c0,4.7-2.2,9.4-6.2,11.9v0.2c6.1,1.9,8.3,7.6,8.3,12.6
		c0,12.2-9.7,16.6-20.3,16.6H54.4L54.4,104L54.4,104z M74.1,125.6c3.3,0,4.7-2.5,4.7-5.2s-1.4-4.8-4.9-4.8h-6.5v9.9H74.1z
		 M75.3,148.1c3.8,0,5.7-2.7,5.7-5.9s-1.8-5.7-5.6-5.7h-7.9v11.6H75.3L75.3,148.1z"/>
</g>
</svg>
