<?xml version="1.0" encoding="UTF-8"?><svg id="Capa_2" xmlns="http://www.w3.org/2000/svg" viewBox="0 0 138.07 70"><defs><style>.cls-1{fill:#fff;}</style></defs><g id="Capa_1-2"><path class="cls-1" d="m138.07,69.95c-.16.06-.31.04-.45.04-2.15,0-4.31,0-6.46.01-.34,0-.54-.09-.66-.42-.32-.88-.66-1.75-1-2.62-.3-.75-.6-1.5-.9-2.26-.36-.91-.71-1.82-1.06-2.73-.4-1.01-.8-2.02-1.2-3.03-.43-1.09-.84-2.18-1.27-3.27-.4-1.01-.8-2.02-1.2-3.03-.43-1.09-.84-2.18-1.27-3.27-.4-1.01-.8-2.02-1.2-3.03-.43-1.09-.84-2.18-1.27-3.27-.4-1.01-.8-2.01-1.2-3.02-.17-.44-.34-.87-.5-1.31-.02-.06,0-.15-.1-.16-.1-.01-.11.08-.13.14-.19.47-.38.94-.56,1.41-.63,1.59-1.25,3.19-1.88,4.78-.93,2.36-1.87,4.72-2.81,7.09-.62,1.57-1.24,3.13-1.86,4.7-.46,1.15-.92,2.29-1.36,3.45-.09.23-.19.32-.45.32-2.23-.01-4.45,0-6.68,0-.07,0-.14,0-.21,0-.12,0-.13-.08-.12-.17,0-.07.03-.13.05-.19.32-.92.69-1.83,1.03-2.75.28-.79.59-1.57.87-2.36.27-.8.6-1.57.9-2.35.19-.5.37-1.01.56-1.51.33-.86.66-1.72.98-2.59.27-.74.54-1.47.81-2.21.32-.85.65-1.7.97-2.55.18-.48.37-.95.54-1.43.35-.97.72-1.93,1.08-2.9.66-1.8,1.33-3.59,2-5.38.13-.34.12-.34.56-.34,2.52,0,5.05,0,7.57,0,1.3,0,2.61,0,3.91,0,.36,0,.37,0,.51.35.49,1.29.97,2.57,1.45,3.86.6,1.6,1.21,3.21,1.81,4.81.56,1.48,1.12,2.96,1.68,4.45.61,1.62,1.21,3.23,1.82,4.85.47,1.25.94,2.5,1.41,3.74.61,1.62,1.21,3.23,1.82,4.85.54,1.45,1.08,2.89,1.62,4.34.61,1.61,1.22,3.23,1.83,4.84.01.04.01.08.03.15"/><path class="cls-1" d="m119.76.91c.28.93.67,1.82.99,2.73.49,1.36,1.01,2.72,1.52,4.08.74,1.96,1.47,3.92,2.21,5.88.25.66.49,1.32.72,1.98.1.29.25.47.55.57,1.03.35,2.04.72,3.06,1.08,1.71.62,3.41,1.24,5.12,1.85.04.02.08,0,.13.01,0,.06,0,.11,0,.17-.71.3-1.43.6-2.14.89-1.2.49-2.4.98-3.59,1.47-.23.09-.49.15-.72.34,1.44,3.86,2.89,7.73,4.33,11.6-.02.01-.04.02-.05.04-.37-.31-.75-.61-1.12-.92-.66-.55-1.32-1.1-1.98-1.65-.62-.52-1.22-1.04-1.84-1.56-.73-.62-1.47-1.23-2.2-1.84-.62-.51-1.23-1.02-1.85-1.54-.57-.48-1.15-.96-1.71-1.45-.12-.1-.2-.1-.34-.05-.63.23-1.27.44-1.91.67-1.3.46-2.59.92-3.88,1.41-.91.34-1.82.65-2.73.99-.87.33-1.75.62-2.62.93-1.08.38-2.17.77-3.25,1.16-.08.03-.16.07-.27.05-.03-.14-.01-.28.04-.43.45-1.2.88-2.4,1.33-3.6.71-1.91,1.42-3.81,2.13-5.71.14-.38.27-.76.41-1.14.05-.12.06-.2-.03-.3-.16-.16-.29-.34-.45-.51-.52-.56-1.07-1.1-1.56-1.68-.32-.38-.7-.69-1-1.08-.32-.42-.75-.73-1.06-1.14-.29-.39-.69-.66-.97-1.05-.39-.54-.96-.91-1.31-1.48-.11-.17-.31-.28-.46-.44-.46-.49-.92-.99-1.38-1.48,0-.07,0-.14,0-.21,2.08.43,4.17.87,6.25,1.3,1.81.37,3.62.74,5.43,1.11.05.01.11,0,.17,0,.05,0,.08-.02.08-.07.02-.14.09-.27.17-.38.23-.35.4-.74.59-1.11.43-.82.87-1.63,1.31-2.45.44-.83.85-1.68,1.3-2.51.44-.79.83-1.59,1.26-2.38.39-.72.76-1.44,1.15-2.15.05.01.11.02.16.03"/><path class="cls-1" d="m57.21,45.88c-.28-.25-.52-.47-.77-.68-2.21-1.88-5.61-1.91-7.85-.08-2.92,2.39-2.71,6.71.46,8.78,2.05,1.33,4.2,1.36,6.39.28.27-.13.38-.31.34-.6-.02-.17,0-.34,0-.51,0-.34,0-.34-.36-.34-.62,0-1.25,0-1.87,0-.39,0-.39,0-.39-.4,0-1.73,0-3.46,0-5.19,0-.38,0-.39.4-.39,2.61,0,5.22,0,7.83,0,.4,0,.39-.02.39.4,0,4.31,0,8.62,0,12.93,0,.06,0,.11,0,.17.01.18-.06.25-.25.25-.31,0-.62,0-.94,0-1.43,0-2.86,0-4.3,0-.35,0-.69.01-1.04.09-1.63.36-3.27.37-4.92.13-1.52-.22-2.9-.77-4.21-1.54-.41-.24-.82-.49-1.17-.81-.55-.52-1.15-.97-1.63-1.58-.38-.5-.81-.97-1.13-1.51-.61-1.04-1.12-2.11-1.36-3.31-.26-1.31-.34-2.62-.21-3.95.09-1,.34-1.94.69-2.86.29-.75.67-1.47,1.15-2.13.53-.73,1.07-1.44,1.73-2.05,1.55-1.43,3.37-2.38,5.42-2.86,2.13-.5,4.25-.45,6.36.19,1.77.54,3.34,1.42,4.7,2.66.03.03.06.06.09.09q.47.4.06.84c-1.14,1.24-2.28,2.49-3.41,3.73-.07.07-.12.16-.19.26"/><path class="cls-1" d="m28.22,60.9c-.67,0-1.32-.09-1.99-.16-1.02-.12-1.96-.46-2.86-.9-1.27-.62-2.4-1.47-3.34-2.54-.75-.85-1.41-1.77-1.9-2.81-.37-.78-.71-1.59-.85-2.44-.23-1.39-.36-2.8-.17-4.22.12-.86.25-1.72.56-2.53.45-1.15.99-2.25,1.77-3.21.42-.51.85-1.02,1.34-1.46,1.65-1.46,3.55-2.37,5.72-2.72,1.93-.31,3.81-.09,5.61.62,1.99.78,3.63,2.03,4.9,3.76,1.14,1.56,1.88,3.29,2.19,5.2.28,1.73.17,3.43-.32,5.12-.4,1.4-1.05,2.66-1.9,3.83-.77,1.05-1.73,1.92-2.81,2.66-.83.56-1.72.97-2.67,1.3-1.07.37-2.18.5-3.3.5m-5.19-12c0,1.49.23,2.41.75,3.35,1.56,2.83,5.15,3.54,7.61,1.5,2.69-2.23,2.66-6.69-.07-8.86-1.67-1.32-3.53-1.54-5.41-.53-1.95,1.04-2.8,2.8-2.88,4.54"/><path class="cls-1" d="m74.34,60.9c-.72,0-1.35-.09-1.99-.16-1.02-.11-1.96-.46-2.86-.9-.83-.41-1.63-.87-2.28-1.55-.19-.2-.44-.34-.64-.54-.37-.37-.66-.8-1-1.19-.57-.65-.98-1.39-1.36-2.16-.32-.64-.59-1.32-.73-2.01-.31-1.52-.47-3.07-.25-4.63.12-.83.27-1.65.55-2.44.26-.72.59-1.4.99-2.05.22-.36.44-.72.7-1.05.86-1.13,1.89-2.09,3.11-2.83,1.35-.81,2.81-1.31,4.36-1.52,1.93-.25,3.79.04,5.59.8,1.35.58,2.55,1.38,3.58,2.43,1.49,1.52,2.48,3.33,3.01,5.4.41,1.62.47,3.24.18,4.88-.39,2.14-1.28,4.04-2.7,5.69-1.07,1.25-2.35,2.24-3.86,2.91-.55.25-1.11.5-1.69.63-.92.2-1.85.34-2.71.29m.37-17.12c-1.7,0-2.83.46-3.78,1.34-2.4,2.22-2.41,6.21-.03,8.45,1.91,1.8,4.85,1.82,6.75.05,2.07-1.93,2.45-5.19.84-7.54-1-1.46-2.39-2.26-3.79-2.3"/><path class="cls-1" d="m0,49.21v-10.5c0-.1,0-.2,0-.3-.01-.16.04-.24.21-.23.1,0,.2,0,.3,0,2.55,0,5.1,0,7.65,0,1.62,0,3.09.44,4.4,1.39.73.53,1.32,1.19,1.79,1.96.72,1.19,1.08,2.47,1.03,3.86-.04,1.08-.36,2.08-.86,3.02-.21.38-.2.32.03.62,1.08,1.4,1.69,2.96,1.56,4.74-.13,1.95-.96,3.56-2.43,4.86-.68.6-1.46,1.01-2.31,1.32-.74.27-1.5.35-2.27.35-2.91,0-5.81,0-8.72,0-.36,0-.37.01-.37-.38,0-2.25,0-4.51,0-6.76v-3.95m5.6,4.17c0,.61,0,1.22,0,1.83,0,.31,0,.32.3.32,1.11,0,2.21.01,3.31,0,.61-.01,1.14-.25,1.54-.7.59-.66.74-1.44.39-2.25-.36-.84-1.04-1.29-1.96-1.31-1.09-.02-2.18,0-3.27,0-.31,0-.31.01-.31.31,0,.61,0,1.22,0,1.83m0-8.27c0,.61,0,1.22,0,1.83,0,.3,0,.31.31.31.54,0,1.08,0,1.61,0,.41,0,.82.02,1.23-.03.89-.13,1.86-.89,1.83-2.17-.03-1.11-.95-2.01-2.05-2.04-.88-.02-1.76,0-2.63,0-.29,0-.29.01-.29.32,0,.59,0,1.19,0,1.78"/><path class="cls-1" d="m96.22,37.9c3.27,0,6.55,0,9.83,0,.53,0,.48-.05.48.48,0,1.94,0,3.89,0,5.83,0,.1,0,.2,0,.3,0,.1-.06.15-.16.15-.11,0-.23,0-.34,0h-5.7c-.1,0-.2,0-.3,0-.16,0-.24.06-.23.23,0,.11,0,.23,0,.34,0,4.92,0,9.84,0,14.76,0,.58.07.52-.52.52-2.01,0-4.03,0-6.04.01-.1,0-.2,0-.3,0-.16,0-.24-.06-.23-.22,0-.11,0-.23,0-.34v-14.89c0-.4,0-.4-.39-.41-.55,0-1.11,0-1.66,0-1.45,0-2.89,0-4.34,0-.39,0-.39,0-.39-.4v-5.96c0-.06,0-.11,0-.17-.01-.16.05-.24.22-.23.11,0,.23,0,.34,0h9.74Z"/><path class="cls-1" d="m130.8.17c.07.45.23.87.35,1.3.15.53.3,1.06.44,1.59.06.24.18.36.45.41.95.18,1.9.4,2.85.6.02,0,.04.04.07.08-.21.22-.48.36-.73.52-.62.39-1.23.79-1.85,1.18-.14.09-.11.19-.06.33.31.85.6,1.7.9,2.55.04.13.08.26.15.46-.43-.22-.72-.51-1.03-.76-.53-.42-1.06-.84-1.58-1.27-.14-.12-.22-.12-.39,0-.94.63-1.9,1.23-2.85,1.85-.13.08-.26.15-.42.19-.03-.13-.02-.25.03-.38.33-.85.65-1.72.98-2.57.07-.19.04-.31-.1-.47-1.1-1.18-2.25-2.31-3.37-3.46-.11-.12-.28-.21-.26-.42.12-.08.24,0,.36.02,1.32.28,2.64.56,3.97.84.3.06.36.03.51-.23.43-.74.86-1.48,1.28-2.22.03-.05.04-.11.06-.16.08-.03.15,0,.23.03"/><path class="cls-1" d="m97.65,25.57c.27-.92.65-1.8.98-2.71.08-.22.09-.37-.09-.54-.46-.44-.92-.89-1.34-1.36-.64-.72-1.34-1.37-2-2.07-.06-.07-.17-.12-.14-.26.24-.04.46.06.68.11,1.23.26,2.45.53,3.67.79.36.08.38.05.58-.31.37-.69.63-1.44,1.02-2.12.03-.06.07-.11.15-.23.17.61.33,1.14.48,1.68.12.43.24.87.36,1.3.05.17.14.27.35.31.95.18,1.89.4,2.88.61-.2.27-.47.4-.71.55-.55.36-1.12.7-1.67,1.05-.15.09-.21.19-.14.38.19.52.36,1.04.54,1.55.14.41.28.82.45,1.28-.42-.15-.66-.43-.93-.65-.5-.39-.97-.8-1.47-1.2-.22-.18-.33-.16-.61.02-.93.6-1.86,1.21-2.79,1.81-.02.02-.05.02-.08.03-.06-.01-.11-.02-.17-.03"/><path class="cls-1" d="m134.06,19.28c0-.06,0-.11,0-.17.08,0,.19-.02.2.07.01.14-.12.09-.21.1"/><path class="cls-1" d="m97.65,25.57c.06.01.11.02.17.03-.02.09-.07.16-.17.12-.09-.04-.06-.1,0-.15"/><path class="cls-1" d="m130.8.17c-.07-.03-.15-.06-.23-.03.03-.08.07-.15.17-.14.09.02.07.1.06.16"/><path class="cls-1" d="m101.88,9.54c0,.07,0,.14,0,.21-.08-.04-.14-.09-.13-.18.01-.07.07-.07.12-.02"/><path class="cls-1" d="m119.76.91c-.05-.01-.11-.02-.16-.03,0-.05.02-.12.08-.11.09,0,.08.08.08.14"/><path class="cls-1" d="m113.81,11.88c0,.05-.03.08-.08.07l.08-.07Z"/></g></svg>