<?xml version="1.0" encoding="UTF-8"?><svg id="Capa_2" xmlns="http://www.w3.org/2000/svg" xmlns:xlink="http://www.w3.org/1999/xlink" viewBox="0 0 370.45 190.5"><defs><style>.cls-1{fill:#fff;}.cls-2{fill:url(#Degradado_sin_nombre_39);}.cls-3{filter:url(#drop-shadow-1);}.cls-4{fill:url(#Degradado_sin_nombre_39-3);}.cls-5{fill:url(#Degradado_sin_nombre_39-2);}</style><filter id="drop-shadow-1" filterUnits="userSpaceOnUse"><feOffset dx="1.15" dy="1.15"/><feGaussianBlur result="blur" stdDeviation="2.14"/><feFlood flood-color="#000" flood-opacity=".75"/><feComposite in2="blur" operator="in"/><feComposite in="SourceGraphic"/></filter><linearGradient id="Degradado_sin_nombre_39" x1="39.73" y1="26.74" x2="90.28" y2="26.74" gradientUnits="userSpaceOnUse"><stop offset="0" stop-color="#d5a640"/><stop offset=".43" stop-color="#ffbd63"/><stop offset=".69" stop-color="#e4be76"/><stop offset="1" stop-color="#d9aa45"/></linearGradient><linearGradient id="Degradado_sin_nombre_39-2" x1="74.58" y1="7.27" x2="91.58" y2="7.27" xlink:href="#Degradado_sin_nombre_39"/><linearGradient id="Degradado_sin_nombre_39-3" x1="24.84" y1="34.22" x2="40.2" y2="34.22" xlink:href="#Degradado_sin_nombre_39"/></defs><g id="Capa_1-2"><g class="cls-3"><path class="cls-1" d="m124.55,69.1h24.31c11.38,0,19.07,8.35,19.07,20.13s-7.69,20.3-19.07,20.3h-9.99v18.09h-14.32v-58.52Zm21.36,28.15c4.99,0,7.45-3.36,7.45-8.02s-2.46-7.86-7.2-7.86h-7.28v15.88h7.04Z"/><path class="cls-1" d="m176.43,69.1h14.32v46.24h23.9v12.28h-38.22v-58.52Z"/><path class="cls-1" d="m254.18,115.35h-18.25l-3.52,12.28h-14.73l19.89-58.52h15.06l19.89,58.52h-14.73l-3.6-12.28Zm-9.17-32.9s-1.31,6.38-2.37,10.07l-3.36,11.38h11.54l-3.27-11.38c-1.06-3.68-2.37-10.07-2.37-10.07h-.16Z"/><path class="cls-1" d="m279.06,69.1h14.49l16.21,27.34c2.29,3.85,4.91,9.99,4.91,9.99h.16s-.65-6.3-.65-9.99v-27.34h14.32v58.52h-14.4l-16.29-27.25c-2.29-3.85-4.91-9.99-4.91-9.99h-.16s.65,6.3.65,9.99v27.25h-14.32v-58.52Z"/><path class="cls-1" d="m141.04,136.31c15.84,0,27.42,11.73,27.42,26.76s-11.59,27.42-27.42,27.42-27.42-12.03-27.42-27.42,11.59-26.76,27.42-26.76Zm0,42.45c7.85,0,14.15-6.75,14.15-15.69s-6.31-15.03-14.15-15.03-14.15,6.45-14.15,15.03,6.31,15.69,14.15,15.69Z"/><path class="cls-1" d="m199.98,136.31c13.42,0,20.16,6.97,20.16,6.97l-6.16,9.61s-5.35-4.84-12.76-4.84c-11,0-15.47,7.04-15.47,14.81,0,9.97,6.89,15.91,15.03,15.91,6.16,0,10.63-3.81,10.63-3.81v-4.03h-7.41v-10.93h18.77v29.62h-10.71v-1.47c0-1.1.07-2.2.07-2.2h-.15s-5.06,4.55-13.79,4.55c-13.42,0-25.74-10.05-25.74-27.2,0-15.25,11.51-26.98,27.5-26.98Z"/><path class="cls-1" d="m254.71,136.31c15.84,0,27.42,11.73,27.42,26.76s-11.59,27.42-27.42,27.42-27.42-12.03-27.42-27.42,11.59-26.76,27.42-26.76Zm0,42.45c7.85,0,14.15-6.75,14.15-15.69s-6.31-15.03-14.15-15.03-14.15,6.45-14.15,15.03,6.31,15.69,14.15,15.69Z"/><path class="cls-1" d="m298.14,148.19h-15.91v-11h44.65v11h-15.91v41.43h-12.83v-41.43Z"/><path class="cls-1" d="m354.03,178.62h-16.35l-3.15,11h-13.2l17.82-52.43h13.49l17.82,52.43h-13.2l-3.23-11Zm-7.48-55.8h12.54l-8.65,11h-9.83l5.94-11Zm-.73,26.32s-1.17,5.72-2.13,9.02l-3.01,10.19h10.34l-2.93-10.19c-.95-3.3-2.13-9.02-2.13-9.02h-.15Z"/><polygon class="cls-2" points="47.3 45.25 69.75 38.05 86.71 52.29 79.9 34.05 90.28 29.8 76.47 24.86 67.62 1.2 58.45 18.62 39.73 14.78 52.94 29.08 47.3 45.25"/><polygon class="cls-5" points="78.94 14.54 84.59 10.91 88.97 14.45 87.14 9.28 91.58 6.42 86.27 5.3 84.74 0 82.16 4.42 74.58 2.81 80.87 9.3 78.94 14.54"/><polygon class="cls-4" points="28.78 40.79 33.89 37.51 37.63 40.57 36.19 36.03 40.2 33.46 35.4 32.44 34.02 27.65 32.11 31.73 24.84 30.19 30.52 36.05 28.78 40.79"/><path class="cls-1" d="m114.53,75.08l.24-.04c-3-18.28-13.59-32.57-28.23-40.88l-2.48,1.99,6.79,21.53-21.69-16.56-26,8.28,6.62-19.7-1.99-2.48c-1.59.26-2.63.45-4.23.85-2.51.62-4.38,1.44-6.75,2.39,1.32.83,7.1,2.03,7.1,2.03l-4.74,4.06.66,6.57-6.29-2.48-7.45,3.97,1.99-7.78s-.33-.66-1.34-1.46C11.09,45.18.64,62.28.03,82.2c-.11,3.47.09,7.03.6,10.65l.13-.02c1.6,10.92,5.36,21.15,10.12,31.03,8.95,18.56,20.6,35.29,34.41,50.57,4.07,4.5,7.8,9.31,11.66,14v-71.93h26.77c9.56,0,17.24,2.81,21.38,8.29,2.46-5.35,4.59-10.86,6.32-16.57,3.27-10.83,4.91-21.85,3.11-33.15Zm-56.94,35.12c-13.04-.04-23.73-9.63-25.64-22.23-.2-1.35-.31-2.73-.3-4.15.05-14.45,11.7-26.14,26.06-26.14,13.01,0,23.81,9.67,25.74,22.25,0,0,0,0,0,0,.2,1.33.31,2.7.31,4.09-.04,14.54-11.71,26.22-26.16,26.18Z"/><path class="cls-1" d="m60.62,121.13h23.97c13.03,0,22.15,6.1,22.15,17.83,0,5.72-2.64,11.54-7.56,14.49v.19c7.47,2.38,10.21,9.35,10.21,15.35,0,14.88-11.85,20.31-24.79,20.31h-23.97v-68.18Zm24.15,26.41c4.01,0,5.74-3.05,5.74-6.29s-1.73-5.82-6.02-5.82h-7.93v12.11h8.2Zm1.37,27.46c4.65,0,6.93-3.34,6.93-7.15s-2.19-6.96-6.84-6.96h-9.66v14.11h9.57Z"/></g></g></svg>