<?xml version="1.0" encoding="UTF-8"?><svg id="Capa_2" xmlns="http://www.w3.org/2000/svg" viewBox="0 0 416.88 301.26"><defs><style>.cls-1,.cls-2{fill:#fff;}.cls-3{fill:#50a1ff;}.cls-4{letter-spacing:-.02em;}.cls-5{opacity:.7;}.cls-5,.cls-6{fill:gray;}.cls-7{opacity:.22;}.cls-8,.cls-9{fill:#333;}.cls-10{fill:#76ad42;stroke:#fff;stroke-width:1.05px;}.cls-10,.cls-2{stroke-miterlimit:10;}.cls-11{fill:#6dad5d;}.cls-2{stroke:#1d1d1b;stroke-width:.53px;}.cls-12{fill:#0f2c52;}.cls-9{font-family:MuseoSans-900, 'Museo Sans';font-size:9px;}</style></defs><g id="Capa_1-2"><g class="cls-7"><path class="cls-3" d="m0,54.84c0-5.72,0-11.44,0-17.16.35.11.69.24,1.05.32,3.18.7,6.36,1.42,9.55,2.06,8.26,1.66,16.58,2.93,24.93,4.02,6.38.83,12.78,1.56,19.17,2.32,4.1.49,8.22.9,12.32,1.42,7.77.98,15.54,1.96,23.27,3.2,8.17,1.32,16.3,2.84,24.33,4.86,4.05,1.02,8.06,2.16,12.1,3.22,3.76.98,7.55,1.79,11.42,2.16,1.24.12,2.48.14,3.73.18.82.03.91.19.56.91-.46.94-.72,1.93-.78,2.96-.15,2.27-.44,4.51-1.15,6.69-.64,1.95-.46,3.89.32,5.8.83,2.02,2.1,3.77,3.31,5.55.18.26.49.47.32.89-1.49.22-2.7,1.04-3.86,1.94-2.51,1.96-4.91,4.06-7.28,6.18-2.27,2.04-4.77,3.41-7.89,3.71-5.26.5-9.61,2.89-13.18,6.76-1.4,1.52-2.52,3.23-3.37,5.11-.65,1.45-1.6,2.62-2.99,3.4-1.78,1-2.77,2.47-3.16,4.5-.52,2.65-1.05,3.07-3.7,2.98-1.66-.06-2.81.65-3.69,1.94-.51.76-.97,1.55-1.39,2.36-.8,1.54-1.94,2.59-3.67,3.06-2.2.6-2.37,2.58-1.45,4.09.29.47.63.9,1.08,1.24.47.35.93.71,1.4,1.06,1.13.84,2.13,1.78,2.83,3.02.65,1.15,1,2.35.88,3.68-.04.41-.06.89-.56.95-.67.08-1.13.49-1.66.81-1.26.78-2.63,1.29-4.08,1.57-1.12.21-1.37.06-1.91-.94-.07-.13-.13-.26-.21-.39-.2-.3-.47-.47-.84-.35-.35.11-.54.37-.54.74,0,.18.05.36.08.54.13.62-.05,1.07-.66,1.33-.78.33-1.29.95-1.72,1.64-.29.47-.57.94-.84,1.41-.19.34-.45.45-.83.31-.31-.11-.62-.23-.84-.49-.43-.5-1.02-.7-1.64-.83-.79-.17-1.58-.31-2.39-.35-1.1-.04-1.21-.22-1.06-1.36.15-1.2.25-2.41-.1-3.6-.35-1.18-1.08-1.67-2.08-1.45-1.51.33-2.13,1.08-1.93,2.38.03.17.13.4-.1.46-.25.06-.41-.15-.46-.37-.1-.4-.09-.8.04-1.19.3-.98.93-1.64,1.89-1.99.45-.16.92-.28,1.33-.5.8-.43.93-1.31.25-1.86-.48-.39-.57-.81-.45-1.35.06-.29.15-.57.18-.86.08-.87-.4-1.31-1.27-1.16-.97.16-1.67.91-1.75,2.11-.07,1-.55,1.84-.97,2.66-.44.85-1.41,1.32-2.13,1.97-.22.19-.51.3-.82.14-.37-.2-.32-.56-.27-.88.1-.69.29-1.36.52-2.02.49-1.38.84-2.8,1.08-4.25.15-.92-.14-1.35-1.01-1.68-.32-.12-.64-.14-.97-.14-1.2.01-2.41-.09-3.58.36-.48.18-1.03.18-1.5-.09-.49-.28-.24-.79-.28-1.2-.13-1.28-.65-2.24-1.98-2.59-.17-.05-.35-.12-.5-.21-.51-.3-.58-.63-.18-1.06.24-.27.56-.47.85-.7,1.17-.89,1.39-1.93.61-3.15-.36-.56-.65-1.14-.87-1.76-.12-.34-.35-.64-.54-.95-.23-.37-.49-.57-.85-.14-.15.18-.4.34-.57.23-.47-.32-1.09-.24-1.51-.62-.67-.6-1.36-1.11-2.31-1.12-.2,0-.32-.17-.31-.38,0-.21.12-.34.3-.41.29-.12.58-.04.86.04.6.17,1.18.4,1.79.52.84.16,1.19-.24.89-1.04-.14-.38-.06-.57.14-.87.66-1,.17-2.39-.92-2.91-1.34-.64-2.72-1.06-4.23-1.01-.32,0-.74.05-.92-.43.3-.23.58-.1.85-.02.37.11.75.11,1.05-.12.73-.56,1.36-.29,1.99.17.66.49,1.4.78,2.21.91.43.07.78-.05.83-.49.12-1.1.49-2.12.86-3.15.14-.39.07-.88-.02-1.3-.13-.62-.38-1.22.56-1.39.05,0,.13-.11.13-.17-.01-.92,1.4-1.26.98-2.37-.03-.09.16-.33.3-.42.45-.3.54-.86.9-1.22.23-.23.16-.53.02-.82-.14-.3-.5-.45-.54-.8.97-.32,1.03-.44.63-1.39-.15-.36.02-.6.27-.74.85-.46.81-1.16.51-1.89-.26-.65-.36-1.26.01-1.89.2-.34.13-.69-.21-.86-.8-.39-.78-1.08-.73-1.78.14-1.79.06-3.59.06-5.38,0-1.99-.47-3.83-1.73-5.44-.58-.75-1.02-1.62-1.94-2.03-.42-1.18-1.55-1.51-2.46-2.13-.81-.55-1.56-1.21-2.26-1.91-.96-.96-2.11-1.55-3.48-1.68-.33-.03-.56-.14-.67-.46-.31-.98-.91-1.74-1.78-2.29-.34-.22-.51-.51-.25-.92.22-.35.16-.63-.16-.96-.63-.65-.59-.86.04-1.56.64-.71,1.29-1.4,1.93-2.11.61-.69.63-.85,0-1.45-1.4-1.32-1.7-3-1.63-4.81.06-1.52.49-2.95,1.03-4.36.35-.92.69-1.85,1.04-2.78.17-.45.16-.78-.43-.87-2.72-.39-5.4-.99-8.14-1.19-1.86-.14-3.72-.31-5.53-.79-1.45-.38-2.91-.73-4.39-.98-2.89-.49-5.81-.72-8.69-1.28-1.37-.26-2.71-.62-4.05-1.01-.67-.19-.77-.1-.7.6.05.47.13.94.16,1.42.08,1.33-.01,2.64-.63,3.86-.39.78-.7.97-1.47.79-1.21-.28-2.42-.58-3.62-.91-.67-.18-.75-.39-.67-1.14.17-1.53.32-3.05.48-4.58.06-.51-.13-.79-.66-.74-1.17.11-2.24-.28-3.32-.63-.42-.13-.85-.24-1.28-.3-1.08-.14-1.27-.02-1.61,1-.76,2.25-1.53,4.51-2.26,6.77-.34,1.05-.77,2.06-1.31,3.02-.22.39-.33.91-.88,1.05Z"/><path class="cls-3" d="m0,37.25c0-1.61,0-3.23,0-4.84,1-.38,2-.29,3.01-.07.54.12,1.08.22,1.61.33,1.58.32,3.11.87,4.71,1.05,4.23.47,8.4,1.22,12.52,2.25,1.56.39,3.15.73,4.76.79,1.85.07,3.63.4,5.41.85,1.85.47,3.72.78,5.63.88,2.41.12,4.8.47,7.2.75.52.06.98.25,1.34.67.21.24.46.53.84.38.42-.17.37-.58.38-.95,0-.15,0-.29-.01-.44-.08-2.37.1-4.69,1.27-6.83.23-.43.23-.85-.19-1.18-.36-.28-.43-.65-.43-1.08,0-.92.03-1.83.18-2.74.2-1.19.55-2.36.64-3.56.03-.4.04-.81.14-1.2.25-.92,1-1.22,1.71-.64.36.3.64.23,1,.11.56-.2,1.12-.39,1.71-.12,1.51.7,3.1.35,4.66.32.85-.02,1.16-.57,1.11-1.44q-.05-.75.68-.62c.22.04.46.04.64.14.86.48,1.81-.06,2.68.29.13.05.34-.1.51-.17.81-.37,1.4-.89,1.23-1.88.34-.06.47.15.65.27.18.12.36.25.56.35.59.28.8.22,1.16-.35.19-.31.38-.57.74-.77,1.03-.55,1.93-.56,2.73.39.09.11.24.16.36.25.82.58,1.37.41,1.55-.59.12-.71.48-.91,1.11-.93,1.24-.04,2.5-.18,3.62.57.29.19.62.24.91-.02.31-.27.36-.63.25-1-.05-.17-.12-.36-.24-.49-.35-.37-.23-.66.14-.89.35-.22.49-.52.46-.93-.01-.22.04-.43.14-.63.24-.46.43-.48.85-.2.43.29.37.65.25,1.06-.32,1.09-.61,2.19-.91,3.28-.09.33-.03.7.35.61.93-.21,1.98-.06,2.67-1.01.55-.76,1.93-.93,2.81-.48.61.31,1.03.19,1.34-.42.11-.22.2-.49.21-.73.03-1.69,1.04-3.11,1.33-4.73.13-.73.61-.99,1.37-1.01.61-.02,1.13.2,1.63.55.79.54,1.02.45,1.38-.47.12-.3.33-.37.57-.43.23-.06.32.13.39.3.15.34.4.61.63.89.22.27.33.57-.09.82-.38.22-.27.53-.11.86.39.77.25,1.46-.29,2.14-.69.86-1.36,1.73-1.96,2.65-.53.82-1.04,1.6-2.16,1.62-.07,0-.14.05-.2.09-.56.33-.6.95,0,1.17.64.23.97,1,1.67.97.77-.03,1-.9,1.59-1.26.17-.11.27-.42.51-.34.99.32,2.05-.03,3.01.34.89.34,1.82-.05,2.71.18.18.05.38-.07.48-.22.46-.65,1.27-.86,1.78-1.45.3-.35.62-.29.7.15.17.91.78,1.58,1.11,2.41.13.34.38.51.73.59.68.16,1.32.42,1.96.71.66.3,1.36.15,2.04-.03.54-.14.46-.72.61-1.02.5-.03.55.48,1.01.49.34-.29.59-.88,1.29-.75.02.2.05.38.06.56.06,1.08.04.96,1.04,1.17.76.16,1.48.37,1.98,1.06.3.41.67.42.93-.1.11-.21.32-.43.51-.28.7.56,1.67.2,2.38.75.29.22.69.26,1.05.25.42,0,.78.14,1.15.31,1.17.55,1.72.18,1.69-1.12,0-.11,0-.22-.02-.33-.1-.46.08-.87.26-1.27.33-.73,1.46-.39,1.71-1.27.02-.08.33-.1.51-.11.14-.01.29.01.43.04.37.09.71.26.8.66.09.37-.26.48-.5.63-.33.2-.62.45-.55.87.19,1.19.96,1.99,1.92,2.63.13.09.28.04.42,0,.61-.21,1.21-.26,1.79.1.2.12.43,0,.64.02,1.84.1,3.53-.52,5.22-1.11.69-.24,1.36-.49,1.89-1.06.42-.45.98-.47,1.52-.18.51.28,1.01.58,1.52.88-.06.29-.31.41-.49.59-.37.37-.76.74-.4,1.33.29.48.94.73,1.54.56.54-.15,1.03-.4,1.39-.84.23-.28.47-.58.61-.91.24-.58.77.06,1.03-.29.45-.61,1.18-.31,1.46-.08,1.01.83,2.27,1.34,3.07,2.44.17.23.39.48.74.32.35-.16.48-.44.37-.81-.26-.89-.09-1.76.07-2.66.21.43.38.85.75,1.17.72.62.91,1.8.44,2.65-.32.58-.6,1.18-.8,1.8-.21.65.05,1.02.73.98.5-.03.84.13,1.17.45.47.44.04.81-.1,1.19-.25.67.06,1.3.12,1.95.04.43.48.39.73.57.6.41.71.72.43,1.37-.21.51-.42,1.01-.65,1.51-1.72,3.69-3.27,7.44-4.51,11.32-1.19,3.74-2.2,7.52-2.86,11.39-.18,1.06-.24,1.1-1.37,1.1-2.16,0-4.31-.23-6.45-.54-4.03-.58-7.97-1.58-11.89-2.66-6.39-1.76-12.81-3.38-19.31-4.71-10.33-2.11-20.76-3.68-31.22-4.98-8.09-1.01-16.2-1.93-24.3-2.87-7.09-.82-14.17-1.68-21.23-2.72-7.53-1.11-15.04-2.38-22.47-4.09C3.57,38.02,1.79,37.64,0,37.25Z"/><path class="cls-3" d="m179.46,164.29c-1.19-1.54-2.22-3-3.17-4.52-.26-.42-.24-.75.27-.96.2-.08.41-.18.58-.3.22-.15.43-.41.21-.64-.52-.55-.1-.71.3-.94,1.06-.62,1.14-.96.42-2-.47-.69-.99-1.35-1.54-2.1,1.23-.57,2.37-1.11,3.52-1.65,1.56-.73,3.12-1.45,4.68-2.17,1.67-.77,2.85-2.01,3.21-3.8.51-2.53,2.1-3.98,4.3-5.03,2.58-1.23,5.1-2.58,7.32-4.41.71-.58,1.43-1.17,1.86-2,.26-.5.62-.55,1.09-.47.58.11,1.15.29,1.65.6,2.38,1.45,5.02,2.2,7.68,2.9,5.21,1.38,10.28,3.18,15.31,5.1,2.53.97,5.07,1.9,7.51,3.08,3.74,1.81,7.12,4.19,10.45,6.66.79.59,1.6,1.15,2.34,1.82.88.8,1.43,1.77,1.6,2.93.2,1.41.42,2.83.22,4.26-.08.54-.19,1.08-.44,1.58-.81,1.6-.86,3.3-.64,5.04.16,1.21.04,1.97-.49,3.2-.07,0-.16.05-.2.02-1.57-1.1-2.99-1.04-4.49.18-.78.63-1.37,1.42-1.93,2.24-1.13,1.67-2.23,3.36-3.36,5.02-1.34,1.97-1.64,4.11-1.07,6.4.41,1.64,1.06,3.2,1.69,4.76.55,1.37.92,2.78,1.08,4.24.25,2.23-.83,3.67-3.06,4.03-1.05.17-2.11.22-3.15.45-.86.2-1.49.58-1.53,1.58-.03.82-.52,1.34-1.25,1.66-.1.04-.2.1-.3.14-2.14.64-3.26,2.23-3.98,4.22-.24.65-.54,1.29-.87,1.89-.46.83-1.04.95-1.79.36-.37-.29-.73-.63-1-1.01-1.06-1.5-2.45-2.49-4.25-2.91-1.1-.26-1.91-.88-2.35-1.96-.33-.82-.97-1.15-1.83-1.11-.33.02-.66.04-.99.06-.61.04-1.15-.09-1.6-.55-.66-.66-1.47-.89-2.4-.85-1.54.08-3.07.21-4.5.86-.74.34-1.41.77-1.9,1.45-.53.73-1.25,1.22-2.09,1.54-2.39.92-4.79,1.82-7.16,2.79-.71.29-1.11.17-1.59-.4-.61-.73-1.32-1.36-1.91-2.12-.75-.96-1.71-1.69-2.77-2.3-.98-.56-1.95-1.15-2.52-2.22-.41-.78-.55-1.58-.43-2.44.06-.43.16-.87.17-1.3.03-1.13-.48-1.78-1.57-2.05-1.54-.38-1.75-.77-1.09-2.21.35-.76.55-1.51.47-2.34-.07-.77.23-1.31.88-1.75.75-.51,1.48-1.08,2.09-1.77,1.14-1.29,1.11-2.34-.12-3.54-.44-.44-.93-.83-1.36-1.28-.76-.81-.75-1.43-.02-2.28.44-.51.43-.67-.17-1.28-1.06-1.06-2.15-2.09-3.22-3.15-.83-.81-.83-1.04-.13-1.93,1.8-2.28,3.79-4.37,6.09-6.15,1.01-.78,1.02-1.05.21-2.04-.99-1.22-1.97-2.46-3.09-3.57-.6-.59-.81-.58-1.26.14-.86,1.36-1.69,2.74-2.64,4.29Z"/><path class="cls-3" d="m108.15,175.72c-.12.37-.47.55-.7.82-.36.43-.73.72-1.25.2-.09-.09-.27-.11-.41-.15-1.03-.34-1.26-.67-1.08-1.77.2-1.23.46-2.45.66-3.67.19-1.13.18-2.25-.15-3.37-.33-1.11-.99-1.98-1.99-2.52-1.04-.56-1.8-1.34-2.35-2.37-.29-.54-.72-1.02-1.14-1.47-.59-.64-.98-1.36-1.16-2.21-.17-.82-.33-1.65-.55-2.47-.29-1.08-.14-2.09.27-3.11.32-.78.65-1.55.86-2.38.23-.94.12-1.8-.33-2.65-.81-1.54-.75-1.76.81-2.66,1.3-.75,1.81-1.86,1.7-3.3-.05-.64-.28-1.23-.74-1.68-.47-.46-1-.84-1.4-1.39-.29-.41-.71-.33-1.07-.06-.58.44-1.14.91-1.71,1.38-.5.41-.98.26-1.09-.37-.04-.21.02-.44.06-.65.41-2.1-.35-3.88-1.55-5.53-.81-1.12-1.93-1.89-3.02-2.69-.48-.35-.92-.73-1.3-1.17-.44-.51-.71-1.11-.75-1.79-.05-.86.31-1.48,1.1-1.85.23-.11.47-.2.72-.26,1.7-.39,2.79-1.51,3.61-2.98.56-.99,1.06-2.01,1.75-2.92.72-.95,1.65-1.42,2.83-1.41.48,0,.95,0,1.43,0,1.18,0,2.01-.54,2.5-1.63.31-.68.46-1.39.59-2.11.27-1.53.99-2.76,2.38-3.51,1.82-.98,2.96-2.5,3.87-4.34,2.8-5.65,7.36-9.19,13.45-10.72,1.31-.33,2.66-.49,4-.68,2.14-.31,3.95-1.29,5.56-2.68,2.25-1.94,4.48-3.88,6.73-5.81,1-.86,2.07-1.63,3.21-2.3.54-.32,1.13-.52,1.74-.67,1.19-.29,2.15.21,2.99.99.94.87,1.85,1.77,2.79,2.65,5.23,4.92,10.66,9.6,16.21,14.15,4.78,3.92,9.7,7.68,14.7,11.32.89.65.92.71.27,1.64-1.12,1.6-2.69,2.69-4.36,3.62-3.27,1.82-6.67,3.37-10.04,4.97-4.8,2.29-9.51,4.73-13.77,7.95-.76.57-1.51,1.16-2.28,1.71-.63.45-1.32.78-2.08.97-1.58.42-2.98.19-4.09-1.1-.07-.08-.15-.16-.23-.23-1.58-1.54-2.95-1.55-4.61-.03-1.24,1.15-2.31,2.45-3.42,3.71-2.49,2.83-4.92,5.72-7.37,8.58-2.81,3.28-5.51,6.65-8.19,10.04-4.47,5.66-8.8,11.43-12.97,17.31-.02.03-.04.06-.06.09-1.03,1.48-1.02,1.55.42,2.56Z"/><path class="cls-3" d="m155.66,184.69c-.36.4-.8.32-1.18.4-1.6.31-2.06,1.58-1.03,2.83.38.46.89.76,1.36,1.11.88.65.9.93.05,1.55-.54.39-.89.86-.92,1.54-.01.38-.24.52-.57.51-.55-.02-1.1-.03-1.64-.12-.56-.09-1.01-.39-1.29-.92-.71-1.36-1.75-2.42-3.02-3.28-.58-.39-1-.95-1.41-1.52-.93-1.28-2.13-2.09-3.78-2.1-1.64,0-2.88.72-3.81,2.03-.21.3-.39.62-.56.94-.22.4-.48.66-1,.73-.86.13-.95.45-.42,1.18.32.44.66.87.97,1.29-.16.27-.39.29-.59.35-.77.24-.79.25-1.16-.46-.25-.48-.51-.88-1.14-.86-.41,0-.63-.33-.9-.58-.13-.12-.26-.26-.4-.38-.33-.28-.65-.67-1.14-.47-.47.19-.3.69-.38,1.09-.35-.07-.45-.45-.75-.58-.38-.16-.43-.46-.25-.82.08-.16.23-.35.12-.51-.54-.8.05-1.29.46-1.83.11-.15.24-.28.34-.43.4-.64.37-.97-.23-1.4-1.52-1.09-3.05-2.16-4.6-3.2-.62-.42-1.05-.32-1.51.3-.37.5-.68,1.04-1,1.57-.4.66-.86,1.28-1.4,1.83-.12.12-.2.32-.54.25-.16-.67-.05-1.39-.07-2.1-.01-.44.02-.89-.3-1.25-.32-.37-.69-.55-1.15-.22-.23.16-.41.47-.76.29-.31-.16-.5-.45-.58-.77-.3-1.22-.47-2.45-.19-3.69.08-.36.18-.71.25-1.07.25-1.38-.24-2.21-1.6-2.54-1.1-.27-2.24-.34-3.38-.28-1.43.08-2.83.33-4.23.66-.75.18-1.5.17-2.27.04-.02-.38.21-.59.38-.82,5.51-7.72,11.25-15.26,17.27-22.6,3.76-4.59,7.59-9.12,11.55-13.54.86-.96,1.71-1.91,2.61-2.82.39-.4.82-.73,1.33-.95.89-.38,1.72-.31,2.44.39.24.23.47.46.69.71,1.1,1.18,2.44,1.52,4,1.24,1.34-.24,2.49-.91,3.51-1.74,4.52-3.69,9.63-6.4,14.86-8.89,3.31-1.58,6.61-3.16,9.86-4.85,1.43-.75,2.79-1.61,3.95-2.76.5-.49.93-1.04,1.3-1.63.23-.37.44-.53.88-.28,1.09.62,2.28.99,3.46,1.38,1.84.62,3.38,1.62,4.32,3.35,1.1,2.03,2.8,3.33,4.86,4.24,2.26,1,3.84,2.64,4.72,4.95.35.92.67,1.86.98,2.8.33.97.06,1.76-.68,2.48-1.38,1.34-2.93,2.44-4.6,3.36-1.64.9-3.28,1.79-4.93,2.66-1.58.83-2.67,2.06-3.04,3.83-.49,2.37-1.9,3.84-4.11,4.76-2.23.92-4.4,2-6.59,3.03-.6.28-1.11.36-1.53-.27-.34-.51-.64-.29-.95.05-1.12,1.26-2.25,2.51-3.37,3.77-.49.55-.48.69.12,1.12.4.28.74.59,1,1,1.18,1.9,2.25,3.86,3.06,5.95.81,2.1,1,4.27.53,6.48-.79,3.73.19,7.03,2.38,10.05.11.15.24.28.33.44.36.6.27,1.01-.33,1.36-.38.22-.8.38-1.17.62-.7.45-1.3.62-2.04-.06-.54-.49-1.35-.51-2.1-.42-.48.06-.96.11-1.42,0-.82-.19-1.06-.84-.48-1.45.61-.63.71-1.22.29-1.97-.29-.52-.15-.98.31-1.36.28-.23.56-.49.78-.77.41-.51.36-.92-.17-1.31-.32-.24-.67-.41-.86-.8-.26-.55-.74-.64-1.3-.49-.84.22-1.54.71-2.13,1.31-.78.8-1.57,1.47-2.75,1.66-.8.12-1.29.82-1.63,1.52-.8,1.65-1.06,3.42-.97,5.23.05,1.14.1,2.27-.16,3.39-.15.66-.42,1.26-.93,1.71-.46.42-.82.37-1.19-.13-.29-.39-.45-.83-.56-1.3-.14-.6.01-1.08.5-1.46.17-.13.35-.27.52-.41,1.17-.91,1.05-2.19-.27-2.89-.49-.26-1.03-.35-1.58-.44-1.85-.31-2.37-.77-2.51-2.61-.17-2.23-1.56-3.55-3.21-4.71-.54-.38-1.11-.35-1.61.1-.75.66-1.64,1.11-2.49,1.61-.48.28-.91.62-1.28,1.03-.92,1.03-1.01,1.93-.29,3.1.54.88,1.17,1.69,2.03,2.28.66.46.81.41,1.36-.2.47-.51.94-1.03,1.44-1.51.56-.54.8-.55,1.22.06.76,1.07,1.4,2.22,1.97,3.37Z"/><path class="cls-3" d="m225.22,236.67c.39-.25.68-.25.96-.22.44.04.69-.19.81-.58.12-.41-.07-.72-.41-.93-.22-.13-.46-.22-.7-.31-.35-.13-.91-.08-.74-.7.16-.59.67-.31,1.02-.25.46.08.87.04,1.27-.18.13-.07.26-.15.36-.25.49-.48.36-1.09-.32-1.25-1.57-.35-2.99-1.07-4.45-1.69-1.85-.78-3.58-.47-5.2.64-.05.03-.06.12-.13.26.59.32.71,1.03,1.19,1.49.26.25.22.52-.13.7-.71.37-1.42.75-2.13,1.12-.34-.17-.3-.51-.38-.76-.58-1.86-1.34-3.65-2.25-5.36-.74-1.4-1.21-1.47-2.56-.55-.12.08-.26.14-.4.17-2.28.56-4.21,1.86-6.2,3.01-1.33.77-2.67,1.53-4.13,2.05-.74.27-.77.25-.98-.5-.28-1.04-.9-1.83-1.72-2.48-.23-.18-.44-.39-.69-.54-.64-.4-.88-1-.7-1.7.15-.61.03-1.17-.1-1.73-.38-1.65-1.21-2.35-2.89-2.51-1.02-.1-2.05-.11-3.07.05-.87.13-.96.06-1.09-.75-.42-2.58-1.94-4.36-4.13-5.64-.38-.22-.8-.37-1.12-.68-.47-.45-.56-.86-.06-1.2,1.11-.77,1.88-1.83,2.68-2.87.26-.33.64-.49,1.06-.5.37,0,.73,0,1.1.03,2.45.13,4.28-1.85,3.97-4.29q-.13-1.03.81-1.4c2.29-.89,4.57-1.78,6.87-2.65.88-.33,1.65-.81,2.23-1.55.93-1.2,2.19-1.8,3.65-2.05.9-.15,1.81-.25,2.72-.33.68-.06,1.32.13,1.8.64.63.66,1.41.88,2.3.81.29-.02.59,0,.88-.02.61-.02,1.09.2,1.31.79.52,1.39,1.65,2,2.98,2.32,1.34.32,2.4,1,3.23,2.12.43.58.97,1.11,1.52,1.58.96.82,1.68.72,2.37-.35.39-.61.68-1.3.99-1.96.2-.43.36-.88.54-1.32.47-1.13,1.26-1.96,2.4-2.44.41-.17.81-.34,1.21-.53.86-.4,1.43-1.03,1.44-2.03,0-.57.31-.87.82-1.02.67-.2,1.35-.33,2.05-.38.73-.05,1.46-.14,2.16-.35,1.66-.48,2.57-1.63,2.67-3.35.07-1.3-.1-2.57-.52-3.79-.53-1.52-1.12-3.02-1.68-4.53-.51-1.39-.8-2.81-.75-4.3.03-.98.23-1.91.75-2.72,1.55-2.44,3.1-4.89,4.87-7.18.79-1.02,1.85-1.66,3.22-1.57,1.01.07,1.36.41,1.47,1.4.17,1.6.17,3.22.23,4.83.05,1.43.13,2.85.15,4.28.07,5.04-.45,10.01-1.39,14.95-.35,1.83-.56,3.69-.52,5.57.04,2,.38,3.93,1.25,5.75.16.33.36.64.19,1.04-.74,1.74-.86,3.63-1.25,5.45-1.11,5.19-2.15,10.4-3.21,15.6-.03.14-.06.29-.1.43-.13.54-.03.88.61,1.04.66.16.67.36.1.82-1.47,1.15-2.96,2.28-4.44,3.42-4.01,3.08-8.02,6.15-12.03,9.22-.35.27-.7.55-1.09.74-.56.27-1.08.52-.84,1.3.06.21-.06.34-.27.4-.18.05-.36.06-.53.13-.37.15-.86-.12-1.13.27-.23.33.05.71.04,1.07,0,.32-.1.44-.44.45-.84.01-.84.04-.74.79.08.65-.1.87-.68.66-.56-.21-.91-.13-1.14.43-.23.56-.56.47-.92.13-.16-.15-.34-.29-.52-.4-1.16-.69-1.99-.47-2.66.7-.07.13-.14.26-.2.39-.54,1.19-1.03,1.68-2.86,1.22-.95-.24-1.8-.84-2.83-.81-.37,0-.44-.34-.49-.63-.15-.81-.06-1.6.17-2.39.28-.95.58-1.9.28-2.91-.08-.28-.11-.58-.24-.84-.4-.79-.14-1.39.46-1.95.58-.54,1.18-.96,2-1.04,2.26-.2,4.51-.44,6.77-.63.76-.06,1.54-.06,2.31-.05.52,0,1.03-.05,1.52-.21.44-.14.82-.37.81-.91,0-.61.38-.63.82-.55.29.05.57.14.85.23.52.16.94,0,1.25-.43.32-.46.09-.83-.21-1.18-.35-.41-.7-.83-1.11-1.32Z"/><path class="cls-3" d="m214.53,90.51c.47.23.76.67,1.1,1.02,2.66,2.74,5.46,5.31,8.61,7.48,1.51,1.04,3.12,1.93,4.81,2.63,4.2,1.74,7.58,4.52,10.4,8.04.98,1.23,1.94,2.48,2.82,3.79.45.67.95,1.29,1.09,2.13.08.48.5.8.72,1.22,1.25,2.36,2.47,4.74,3.59,7.17.56,1.2.92,2.47,1.15,3.77.56,3.17,1.12,6.34,1.71,9.51.85,4.57.34,9.04-.85,13.47-.22.81-.42,1.63-.67,2.44-.18.59-.37.65-.83.24-1.86-1.66-3.94-3.04-5.96-4.49-3.73-2.7-7.78-4.8-12.08-6.44-5.99-2.28-11.97-4.57-18.18-6.19-2.71-.7-5.34-1.54-7.77-2.95-.48-.28-1.01-.5-1.55-.51-.8-.02-1.01-.49-1.16-1.15-.32-1.36-.89-2.63-1.51-3.88-.72-1.45-1.79-2.58-3.21-3.36-1.09-.6-2.19-1.19-3.25-1.83-.9-.54-.7-.72-.16-1.31,1.23-1.31,2.56-2.52,3.83-3.78,1.12-1.11,2.28-2.17,3.41-3.27,3.29-3.19,6.56-6.39,9.86-9.57,1.26-1.21,2.13-2.59,2.4-4.34.21-1.37.47-2.74.69-4.12.25-1.59.45-3.19.71-4.78.05-.3,0-.66.3-.95Z"/><path class="cls-3" d="m281.9,75.04c-.06.14-.08.22-.13.27-.67.83-.68.84.09,1.58.3.29.35.52,0,.81-.43.34-.86.69-1.25,1.08-.26.25-.49.55-.66.87-.27.5-.14.9.4,1.01.66.13,1.06.55,1.64.98-.85.62-1.47,1.32-1.7,2.3-.19.82-.17.72.56,1.06,1.09.5,1.97.25,2.84-.43.43-.33.9-.61,1.4-.94.14.45.31.79.64,1.06.73.6.79.68,1.61.1.62-.44,1.19-.42,1.71,0,.82.66,1.77,1.02,2.72,1.4.97.38,1.05.64.65,1.58-.37.87-.37.87.44,1.41.61.41,1.15.89,1.65,1.44.35.38.57.33.66-.14.09-.46.15-.85.72-.94.25-.04.24-.31.32-.52.22-.6.41-.66.96-.39.8.4,1.07.39,1.59-.28.81-1.03,1.71-1.96,2.31-3.18.97-1.98,2.95-2.77,5.09-2.25.82.2,1.61.5,2.47.47.34-.01.63.18.9.37.52.36,1.05.38,1.52-.04.53-.47,1.05-.44,1.61-.11.42.25.87.37,1.33.52.61.2,1.15.51,1.44,1.11.25.5.64.67,1.17.61,1.2-.13,2.22.24,3.11,1.07.42.39.93.66,1.6.53.77-.15,1.79.58,2.04,1.36.34,1.06.54,1.19,1.55.71.49-.23.75.14,1.12.19.44.06.61.3.53.76-.09.54.26.82.72.95.66.18,1.2.51,1.67,1,.19.2.47.35.73.47.36.16.77.19.98.63.12.26.42.27.68.26.28,0,.52.07.6.36.18.61.95.82,1,1.52.02.23.3.27.52.34,1.86.6,2.12.46,2.81-1.42.19-.51.27-1.06.59-1.53.01-.02.07-.01.17-.03.22.4.07.81-.03,1.21-.4,1.56-.79,3.12-1.18,4.69-.11.46-.31.95.21,1.3.45.3.91.16,1.35-.06.29-.14.53-.4.99-.39.18.59.14,1.18-.07,1.77-.38,1.08-.91,2.08-1.57,3.01-.49.7-1.21,1.08-2.05,1.13-1.79.1-3.45.6-5.05,1.36-.56.27-1.17.4-1.81.4-1.2,0-1.89-.37-2.27-1.5-.55-1.64-1.96-2.29-3.82-1.62-.62.22-1.2.55-1.79.85-.87.44-1.77.67-2.76.54-.36-.05-.73-.02-1.1-.03-1.23-.03-2.14.42-2.53,1.66-.24.78-.85,1.05-1.58,1.18-.61.11-1.24.14-1.84.31-2.08.58-3.66,1.85-4.67,3.73-.34.62-.73.8-1.38.83-2.28.11-4.53-.18-6.78-.51-3.89-.58-7.42.21-10.5,2.74-1.43,1.17-1.66,1.11-2.83-.28-1.79-2.14-3.81-4.05-5.88-5.92-2.15-1.94-4.42-3.73-6.64-5.58-.17-.14-.36-.26-.45-.47-.42-1.09-1.34-1.7-2.23-2.35-3.73-2.71-7.42-5.48-10.97-8.43-.08-.07-.17-.14-.3-.24.78-.72,1.18-1.6,1.41-2.59.2-.87.78-1.38,1.64-1.6.53-.14,1.06-.29,1.6-.38,2.61-.46,4.52-1.94,6.04-4.04.81-1.13,1.69-2.2,2.56-3.33.5.31.79.85,1.55.83-.54.58-.39.97.04,1.32.19.16.37.36.51.57.27.41.61.43.9.1.42-.48.92-.49,1.49-.46.43.02.87-.09,1.3-.17.17-.03.41-.09.48-.22.4-.72.83-1.29,1.82-1.25.39.02.5-.62.2-.97-.14-.16-.33-.3-.51-.4-.89-.51-.95-1.43-1.08-2.28-.08-.52.63-.9,1.2-.71.85.28.9.26,1.03-.56.02-.14.02-.29.06-.43.32-1.31.95-1.52,2.13-.69Z"/><path class="cls-3" d="m316.87,109.05c.26.62.08,1.16-.39,1.57-.88.77-1.37,1.68-1.3,2.88.03.57-.26,1.05-.64,1.48-.29.33-.56.67-.82,1.03-.45.59-.61,1.26-.34,1.97.4,1.03.14,1.82-.71,2.51-.82.67-1.16,1.58-1.04,2.64.04.36.1.72.16,1.09.24,1.39-.04,2.62-1.07,3.63-.23.23-.43.5-.64.75-.6.74-.89,1.57-.88,2.54.02,1.15-.19,1.42-1.24,1.77-1.53.51-3.04,1.06-4.62,1.38-1.71.35-3.42.33-5.13.11-.73-.09-1.45-.17-2.19-.14-1.22.04-2.28.44-3.19,1.28-.75.7-1.49,1.41-2.31,2.02-1.41,1.04-3.04,1.59-4.73,1.97-1.04.23-2.08.43-3.12.63-1.04.21-2.04.14-2.98-.41-1.17-.67-2.44-.76-3.73-.55-2.21.36-4.36.96-6.45,1.77-1.56.61-2.88,1.57-4.03,2.8-.72.78-1.49,1.5-2.58,1.78-.88.23-1.59.05-2.18-.62-.05-.05-.1-.11-.14-.17-1.83-2.04-3.57-2.47-6.2-1.57-1,.35-1.9.92-2.9,1.48-.31-.86.02-1.6.06-2.33.01-.27.35-.33.58-.45,2.21-1.17,3.45-2.99,3.58-5.52,0-.04.02-.07.01-.11-.16-1.92.27-3.69,1.18-5.39.55-1.04.47-2.2.27-3.34-.22-1.26-.67-2.47-.85-3.75-.24-1.73.24-3.25,1.2-4.66.95-1.38,2.23-2.41,3.53-3.43,1.61-1.27,3.29-2.47,4.48-4.18.54-.78,1.02-1.6,1.53-2.41.56-.91,1.24-1.72,2.08-2.39.69-.55,1.37-1.12,1.75-1.94.2-.43.48-.4.79-.17.47.35.93.71,1.38,1.08,2.84,2.36,5.7,4.72,8.28,7.37.92.94,1.8,1.92,2.67,2.92.97,1.12,1.62,1.2,2.77.22,1.65-1.41,3.54-2.33,5.65-2.79,1.81-.4,3.63-.32,5.45-.01,1.59.27,3.18.53,4.8.5,4.86-.09,9.28-1.54,13.23-4.38.29-.21.51-.55.97-.48Z"/><path class="cls-3" d="m192.3,121.48c-.59-.42-.9-.97-1.21-1.49-1.19-1.97-2.84-3.37-5.08-3.93-2.39-.6-4.24-2.1-6.15-3.51-3.86-2.85-7.66-5.77-11.41-8.76-.14-.11-.27-.24-.42-.36-.43-.34-.35-.67.02-.99,1.34-1.19,2.68-2.38,4.02-3.58.55-.49,1.09-.98,1.64-1.47,1.35-1.21,2.03-1.29,3.49-.26,1.27.89,2.59,1.66,4.07,2.14.82.26,1.05.07,1.03-.79-.02-.5-.21-.93-.51-1.31-.39-.49-.81-.95-1.21-1.42-.86-1.01-.97-1.71-.22-2.78,1.96-2.76,2.61-5.93,2.99-9.19.32-2.72.41-5.47.89-8.18.3-1.7.77-3.35,1.51-4.92.25-.52.51-.62,1.1-.52,6.93,1.16,13.87,2.27,20.82,3.27,1.26.18,2.38-.05,3.4-.87.66-.53,1.44-.64,2.27-.37.88.29,1.65.78,2.49,1.15.39.17.42.45.31.81-1.28,4.39-1.4,8.95-1.93,13.45-.5,4.22-1.13,8.41-1.84,12.6-.29,1.7-1.09,3.07-2.32,4.26-4.93,4.75-9.85,9.52-14.78,14.28-.97.93-1.97,1.83-2.97,2.74Z"/><path class="cls-3" d="m185.6,69.89c-1.14,2.21-1.77,4.54-2.07,6.94-.24,1.96-.38,3.93-.57,5.9-.18,1.86-.42,3.71-.93,5.51-.44,1.56-1.09,3.02-2,4.38-.88,1.32-.82,2.14.15,3.4.2.26.45.48.66.73.23.28.49.55.66.87.18.34.52.77.23,1.1-.28.32-.66-.06-.99-.17-1.19-.4-2.23-1.1-3.26-1.79-1.67-1.13-2.51-1.07-4,.25-1.92,1.7-3.84,3.4-5.76,5.1-.6.53-.63.56-1.26.04-2.03-1.68-4.06-3.36-6.07-5.07-4.28-3.67-8.49-7.42-12.53-11.36-.6-.59-1.27-1.12-2.1-1.37-.27-.08-.44-.24-.6-.45-1.57-2.07-3.09-4.18-4.03-6.64-.56-1.45-.77-2.99-.33-4.43.82-2.69,1.18-5.43,1.43-8.2.06-.62.25-1.21.48-1.8.27-.69.71-1.03,1.48-1.05,2.35-.06,4.68.01,7.01.37,6.01.91,11.96,2.17,17.93,3.28,3.81.71,7.62,1.44,11.44,2.17,1.2.23,2.33.62,3.33,1.36.5.37,1.05.66,1.7.91Z"/><path class="cls-3" d="m213.99,65.52c-.26,1.21-.29,2.44-.18,3.67.03.35-.15.64-.42.86-1,.81-2,1.6-2.99,2.41-.72.58-1.57.57-2.41.48-1.35-.15-2.69-.33-4.03-.54-5.42-.85-10.84-1.72-16.27-2.57-1.43-.22-2.78-.6-3.96-1.51-.89-.69-1.99-.92-3.07-1.13-7.08-1.37-14.16-2.75-21.24-4.08-3.63-.68-7.26-1.42-10.95-1.75-1.13-.1-2.26-.16-3.4-.08-.36.03-.73.09-1.22-.11,1.45-8.65,4.12-16.91,8.05-24.76.54.08.68.47.94.7.78.69,1.57,1.28,2.72,1.19.56-.04,1.04.22,1.28.84.16.4.45.76.74,1.08.48.54,1.03.87,1.84.64,1.26-.36,2.55-.08,3.83-.04.43.01.77.15.75.81-.01.57.05,1.13-.03,1.72-.16,1.23.51,1.76,1.71,1.43.6-.17,1.21-.31,1.83-.33.4-.01.8-.1,1.28.1-.04.51-.09,1.04-.13,1.57-.07,1.04.29,1.43,1.37,1.21.95-.19,1.88-.23,2.83-.21.62.01.68.09.56.71-.15.81-.03,1.15.74,1.23.92.09,1.78.36,2.68.5.77.12,1.53-.11,2.29-.23.32-.05.71-.14.6.44-.02.09.05.26.11.29,1.01.39,1.67,1.58,3.01,1.26.78-.18,1.58-.23,2.33-.57.68-.31.9-.1.88.66-.05,1.89,1.12,3.42,2.97,3.79.99.2,1.7.8,2.47,1.37.51.38.96.96,1.74.48.2-.12.49.09.71.22.29.16.56.34.86.49,1.12.55,1.44.49,2.34-.36.05-.05.1-.11.16-.15.3-.23.58-.74.98-.44.3.23.01.68-.15,1-.47.89-1.06,1.68-2.06,2.02-.44.15-.85.3-.78.88.06.56.62,1.15,1.14,1.18.25.01.51-.05.75-.12.38-.11.71-.09.99.25.34.42.74.41,1.16.1.48-.35.75-.22,1.01.31.41.84.45.82,1.42.6.1-.02.29-.08.31-.05.45.75,1.58.39,1.97,1.24.07.15.24.27.39.38.22.16.47.24.7.03.18-.16.23-.38.11-.6-.17-.3-.15-.64-.19-.96-.03-.23-.12-.43-.38-.48-.94-.19-.9-.92-.91-1.62-.01-1.07.02-1.1,1.1-1.11.44,0,.88-.02,1.32.02.49.05.63.29.44.75-.1.23-.26.44-.4.65-.26.38-.36.8-.32,1.25.09,1.07.38,1.33,1.45,1.28.07,0,.15,0,.22-.01q1.45-.12,1.77,1.27c.02.11.03.22.07.32.16.36.26.85.72.88.45.03.52-.46.66-.78.71-1.62,1.2-3.3,1.4-5.06.1-.87.27-1,.99-1,.8.01,1.08.29,1.06,1.05,0,.33-.04.66-.09.98-.06.4-.26.62-.71.69-.92.14-1.04.3-1.01,1.2.02.51.1,1.02-.1,1.52-.15.37-.18.72.2.97.36.24.69.17.99-.13.1-.1.21-.21.45-.17Z"/><path class="cls-3" d="m308.7,133.18c.31,2.6.65,3.21,2.93,5.22-1.08.17-2.06.32-3.04.46-.98.14-1.95.35-2.89.66-1.52.51-2.89,1.24-3.85,2.59-.21.3-.49.54-.75.8-.63.66-1.36,1.05-2.33,1.03-1.12-.02-1.48.33-1.44,1.43.05,1.23-.56,1.99-1.56,2.55-.95.53-1.98.74-3.05.83-.91.07-1.82.17-2.71.37-1.09.24-1.98.77-2.64,1.65-.42.56-.92.94-1.6,1.07-.85.16-1.45.68-1.93,1.35-.3.42-.56.86-.86,1.28-1.16,1.64-2.72,2.51-4.74,2.52-.26,0-.51,0-.77,0-.93,0-1.73.28-2.29,1.07-.11.15-.23.28-.36.41-.62.6-1.02.63-1.73.1-.38-.29-.74-.6-1.12-.89-.45-.35-.95-.6-1.52-.31-.6.31-.92.83-.97,1.5-.08.91.43,1.76,1.35,2.2.6.29,1.24.46,1.91.43.58-.03.88.26,1.02.79.07.28.16.57.21.85.15.94-.27,1.69-1.22,1.91-2.64.62-5.25,1.33-7.93,1.74-1.13.17-2.27.15-3.36-.28-.43-.17-.64-.1-.53.42.17.74-.22,1.27-.73,1.72-.52.46-1.13.81-1.76,1.12-1.21.59-2.02,1.44-2.04,2.87,0,.11-.02.22-.06.32-.11.3-.1.71-.46.82-.44.14-.64-.26-.87-.53-.68-.82-1.34-1.65-2.01-2.47-.13-.17-.23-.38-.49-.4-.57,1.11-1.02,1.32-2.27.98-.6-.16-1.2-.29-1.95-.33.68-1.98.3-3.94.31-5.89,0-.71.12-1.4.43-2.03,1.04-2.12.84-4.34.55-6.57-.03-.22-.02-.46-.11-.65-.49-.97-.22-1.9.05-2.86.64-2.29,1.3-4.58,1.58-6.95.05-.39.18-.69.53-.91,1.25-.77,2.5-1.56,3.97-1.81,1.77-.3,3.36-.01,4.47,1.59,1.01,1.47,2.46,1.37,3.7.8.6-.28,1.12-.71,1.56-1.2,1.96-2.26,4.54-3.4,7.36-4.12,1.49-.38,2.97-.8,4.53-.78.86.01,1.68.16,2.43.58.9.51,1.84.6,2.86.42,1.95-.34,3.9-.66,5.76-1.37,1.49-.57,2.87-1.34,3.93-2.54,1.46-1.64,3.22-2.34,5.4-1.91,3.36.66,6.54-.04,9.68-1.19.44-.16.9-.29,1.41-.45Z"/><path class="cls-3" d="m214.54,89.12c.18-1.71.35-3.35.52-4.99.28-2.73.5-5.47,1.11-8.15.13-.57.31-1.13.43-1.7.1-.45.35-.59.79-.54.88.11,1.74.28,2.38.98,2.55,2.85,5.77,4.82,8.97,6.82,5.61,3.52,11.23,7.04,16.82,10.59,2.11,1.34,4.06,2.88,5.65,4.83.05.06.09.13.15.16,1.14.66.91,1.52.54,2.56-.99,2.75-1.9,5.53-2.33,8.45-.16,1.1-.64,2.09-1.42,2.92-.75.79-1.15,1.77-1.39,2.83-.2.88-.62,1.64-1.3,2.24-.47.42-.55.41-.93-.13-.27-.39-.5-.81-.75-1.21-2.5-3.91-5.39-7.47-9.01-10.41-1.38-1.11-2.91-1.98-4.52-2.68-4.49-1.95-8.37-4.77-11.89-8.15-1.14-1.09-2.2-2.25-3.32-3.36-.33-.33-.57-.67-.49-1.08Z"/><path class="cls-3" d="m246.96,71.69c.6.34,1.05.23,1.46-.07.57-.42,1.15-.39,1.75-.07.54.28,1.1.43,1.68.12.23-.12.43-.31.39-.61-.04-.29-.29-.28-.5-.3-.18-.02-.36-.04-.54-.08-.1-.03-.2-.09-.21-.22,0-.12.03-.2.16-.23.69-.2,1.2-.95,2.11-.57.38.16.84-.15,1.18-.46.4-.36.86-.56,1.4-.51.38.03.73-.08,1.05-.26.75-.42,1.34-.05,1.91.38.34.26.33.64.18,1-.11.27-.27.52-.38.79-.16.41-.17.83.24,1.08.34.21.72.14,1.01-.16.29-.31.6-.46,1.04-.51,1.15-.14,1.8.51,2.26,1.38.29.55.55.82,1.18.56.53-.22.84.05.97.56.3,1.23,1.17,1.69,2.33,1.79.36.03.72.12,1.08.19.45.08.76.19.5.78-.24.54.26.84.59,1.12-.05.42-.38.36-.58.47-.55.31-.57.58-.06.96.03.02.06.04.09.06q1.41.97.36,2.27c-.66.83-1.38,1.62-1.97,2.5-1.47,2.18-3.55,3.32-6.08,3.75-.25.04-.5.11-.75.16-1.27.25-2.12.96-2.39,2.26-.25,1.19-.91,2.05-1.99,2.61-1.26.66-1.95,1.72-2.18,3.11-.06.39-.18.79-.35,1.15-.47.96-1.29,1.08-2.03.32-.33-.34-.61-.73-.93-1.08-2.15-2.35-4.8-4.06-7.47-5.74-6.02-3.78-12.08-7.48-18.04-11.35-1.79-1.16-3.46-2.47-4.88-4.07-.76-.86-1.69-1.38-2.84-1.5-1.03-.11-1.99-.46-2.89-.97-.7-.39-1.42-.75-2.42-.8.5-.44.87-.77,1.25-1.09.55-.46.77-1.04.66-1.76-.27-1.85.17-3.54,1.1-5.14.22-.37.32-.81.49-1.22.21-.5.49-.61.78-.24.63.8,1.4,1.51,1.57,2.6.14.88.53,1.53,1.54,1.54.85.84,2.21.74,3.03,1.65.28.31.69.43,1.11.37.65-.1,1.22.14,1.79.4,1.1.51,2.19,1.02,3.29,1.51.73.33,1.46.67,2.29.16.34-.21.79-.08,1.19,0,.69.13,1.38.17,2.08.15.46-.01.61-.2.34-.62-.09-.14-.29-.29-.09-.46.2-.16.45-.3.7-.12.32.23.6.43.93.01.09-.12.24-.07.39-.02,1.75.61,2.2.44,3.06-1.15.05-.09.12-.17.27-.38.65.82.95,1.72.77,2.64-.22,1.09.05,1.84.95,2.46.56.39.73.99.54,1.66-.3,1.04-.42,2.06-.1,3.13.22.73-.18,1.35-.54,1.95-.34.56-.73,1.09-.86,1.76-.2,1,.09,1.68,1.06,1.99,1.09.35,1.79,1.08,2.41,1.97.46.66.82,1.39,1.49,1.89,1.02.76,2.13,1.18,3.38.12.59-.5.75-.44,1.33.03.31.25.6.54.93.77.88.6,1.54.44,2.13-.46.29-.44.45-.92.45-1.45,0-.47-.04-.95-.05-1.43-.03-.84.16-1.57.87-2.14,1.09-.87,1.15-1.45.4-2.63-.14-.22-.28-.43-.44-.63-.68-.87-.7-1.8-.29-2.79.21-.51.43-1.02.55-1.55.21-.91-.06-1.16-.95-.93-1.52.4-3.03.45-4.56.13-.62-.13-1.19-.37-1.71-.72-.55-.38-.98-.86-.98-1.8Z"/><path class="cls-3" d="m244.79,117.18c1.54-.83,2.23-2.17,2.58-3.72.18-.77.54-1.43,1.07-2.01.88-.94,1.4-2.05,1.59-3.31.48-3.28,1.66-6.37,2.68-9.5.1-.31.19-.6.56-.75.79-.32,1.09-1.04,1.32-1.79.11-.39.19-.78.27-1.18.23-1.07,1.02-1.65,1.89-2.16.39-.23.61.05.86.25,1.64,1.29,3.28,2.58,4.91,3.87,2.04,1.61,4.14,3.14,6.25,4.66.39.28.77.56,1.11.9.9.9.92,1.87.08,2.81-.27.3-.55.59-.86.85-1.23,1.01-2.24,2.21-2.99,3.62-1.2,2.26-3.09,3.88-5.08,5.39-1.52,1.16-2.97,2.38-4.06,3.98-1.13,1.66-1.5,3.46-1.04,5.44.26,1.1.57,2.19.78,3.31.23,1.18.1,2.3-.45,3.3-.9,1.63-1.15,3.36-1.12,5.18.03,2.11-.96,3.72-2.71,4.85-.78.5-1,.41-1.07-.55-.28-4.18-1.32-8.23-1.99-12.34-.34-2.04-.98-3.97-1.93-5.8-.9-1.72-1.75-3.46-2.67-5.31Z"/><path class="cls-3" d="m251.94,74.87c.45-.03,1.18-.02,1.9-.19.83-.19.99.01.71.84-.14.41-.32.82-.5,1.22-.39.88-.27,1.71.25,2.5.28.43.58.85.82,1.3.36.69.34,1.08-.27,1.54-1.15.86-1.39,1.98-1.23,3.31.08.62.07,1.25-.24,1.82-.41.76-1.03.91-1.72.39-.29-.22-.53-.51-.82-.73-.64-.49-1.13-.49-1.8-.02-1.23.85-1.99.77-3.08-.27-.59-.57-.99-1.27-1.44-1.94-.5-.76-1.14-1.31-2.01-1.63-1.18-.42-1.45-1.16-.87-2.3.2-.39.44-.76.68-1.13.52-.78.74-1.6.39-2.5-.25-.67-.15-1.31.07-1.93.41-1.18.21-2.16-.82-2.92-.49-.36-.66-.85-.56-1.45.21-1.26-.1-2.4-.82-3.43-.15-.22-.29-.43-.22-.71.2-.78.45-1.56.98-2.18.45-.53.88-.52,1.18.15.35.77,1.16,1.37.93,2.38-.03.14.1.36.21.49.45.53.5,1.06.29,1.73-.22.67.14,1,.87,1.02.34.01.64-.14.96-.19.57-.08.79.17.73.76-.2,1.95.47,2.99,2.33,3.67.91.33,1.85.42,3.09.4Z"/><path class="cls-3" d="m416.87,117.78c0-.26,0-.52,0-.79-.02-.74-.16-.98-.85-1.1-.8-.14-1.36-.63-1.88-1.17-.42-.43-.68-.94-.61-1.59.07-.64-.15-1.22-.53-1.74-.31-.42-.61-.85-.91-1.28-.48-.66-.93-1.33-1.22-2.11-.24-.64-.37-1.34-.71-1.93-.36-.62-.36-1.24-.36-1.89,0-.1,0-.2,0-.29-.03-.64-.22-1.21-.68-1.68-.41-.43-.84-.85-1.39-1.07-.95-.38-1.37-1.18-1.75-2.02-.21-.47.02-1.46.38-1.83.15-.16.32-.21.53-.17-.09-1.33.43-2.47,1.12-3.55.14-.22.32-.4.53-.56.18-.14.34-.31.34-.56-.17.01-.33-.02-.46-.13-.61-.51-.96-1.14-.99-1.95-.03-1.08-.56-1.77-1.58-2.11-.22-.07-.43-.15-.65-.21-.62-.19-1.25-.37-1.87-.56.04.39-.1.72-.46.89-.59.29-1.23.55-1.88.4-.45-.1-.76.01-1.09.25-.29.21-.59.42-.85.66-.56.51-1.14.97-1.89,1.18-.51.14-.84.49-1.03.98-.05.12-.07.25-.13.37-.17.35-.42.41-.79.2-.08-.05-.16-.1-.26-.16-.1.09-.2.18-.3.26-.42.31-.77.85-1.43.48-.02-.01-.07-.01-.09,0-.37.23-.94.04-1.19.56-.07.15-.25.22-.42.2-.4-.05-.61.17-.75.49-.09.19-.22.16-.4.13-.42-.07-.85-.08-1.25.09-.22.09-.43.12-.67.04-.73-.25-1.49-.14-2.24-.13-.29,0-.48.13-.62.39-.2.37-.49.66-.8.94-.39-.56-.95-.73-1.47-.96-.68.14-1.46.06-1.8.9-.11.26-.26.29-.46.11-.32-.29-.66-.53-1.1-.62-.21-.04-.33-.2-.45-.36-.09-.12-.21-.2-.33-.11-.32.23-.62.25-1.01.13-.57-.19-.38.62-.79.7-.16.03-.31.1-.47.15-.18.06-.35.02-.43-.13-.2-.36-.48-.41-.83-.31-.14.04-.26.03-.37-.06-.3-.25-.48-.03-.65.17-.1.11-.06.33-.22.36-.2.02-.27-.12-.38-.17-.29-.13-.36-.47-.56-.63-.27-.21-.59.15-.93.09-.35-.06-.48-.12-.53-.45-.06-.42-.11-.84-.18-1.26-.06-.39-.13-.47-.49-.48-.49-.01-.98-.08-1.45.15-.23.11-.45-.07-.34-.27.29-.58-.05-.78-.47-1.04-.21-.13-.39-.2-.62-.21-.23,0-.36-.14-.44-.34-.06-.15-.08-.31-.11-.47-.03-.18-.13-.3-.3-.35-.35-.09-.54-.32-.72-.62-.2-.33-.46-.63-.69-.95-.1-.14-.24-.2-.42-.22-.3-.02-.56.04-.82.25-.4.32-.8.68-1.34.76-.2.03-.25.18-.26.36,0,.13,0,.26-.01.39-.02.22-.13.37-.37.38-.33,0-.65,0-.98,0-.21.18-.43.36-.65.54.38.56.37.69-.14,1.05-.23.16-.24.35-.22.58.09.09.17.2.27.26.22.13.32.32.33.56.02.82.24,1.62.2,2.44-.02.3.05.58.12.87.04.19.03.39,0,.58-.03.25-.27.39-.5.29-.12-.05-.22-.14-.34-.2-.12-.06-.28.07-.25.2.06.25.09.52.2.75.28.57.1,1-.35,1.38-.37.32-.7.69-1.12.95-.19.12-.36.28-.51.45-.28.3-.64.45-1,.6-.11.05-.27.07-.37.02-.58-.26-1.11-.05-1.6.21-.52.28-1.07.29-1.62.28-.35,0-.49-.21-.45-.6.1-1.11.19-2.21.28-3.32.04-.47.05-.5.57-.63.4-.11.44-.13.43-.51,0-.55.06-1.12-.19-1.64-.4-.01-.69.16-.85.53-.07.15-.15.29-.21.44-.11.26-.27.43-.56.48-.49.1-.9.37-1.33.6-.49.26-1.03.02-1.54.14-.09.02-.19.05-.28.08-.22.07-.45.06-.67.02-.22-.05-.45-.1-.67-.11-.37,0-.68-.1-1.01-.28-.71-.38-1.47-.54-2.23-.09-.26.16-.56.15-.86.15-.04,0-.08,0-.12,0-.08-.16-.2-.31-.3-.44-.23-.31-.44.01-.64.13-.24.14-.49.09-.75.08-1.1-.07-2.17.11-3.24.38-.24.06-.44.17-.46.4-.07.7-.74,1.29-.39,2.09.09.2-.04.5-.08.75-.15.92-.64,1.71-1.03,2.53-.82,1.71-2.1,2.67-4.05,2.66-.97,0-1.87.29-2.75.68-.67.29-1.35.58-2.05.78-1.61.46-3.5.11-4.05-1.91-.02-.07-.06-.13-.09-.2-.28-.75-.86-1.04-1.62-1.09-.85-.06-1.58.26-2.3.64-1.45.78-2.92,1.25-4.63.93-1.17-.22-1.9.32-2.35,1.48-.29.73-.83,1.1-1.53,1.28-.46.12-.93.18-1.4.25-1.26.19-2.4.68-3.38,1.47-.79.64-1.49,1.38-1.81,2.38.23.15.41.11.59.07,3.59-.67,6.84-2.11,9.74-4.33.25-.19.46-.53.85-.27.33.22.48.54.5.93.01.31-.09.58-.22.84-.2.44-.5.81-.86,1.13-.39.36-.74.78-.72,1.31.04,1.35-.54,2.39-1.44,3.32-.49.51-.69,1.15-.46,1.83.44,1.28.11,2.27-.94,3.1-.55.43-.75,1.05-.73,1.76.02.66.05,1.32.17,1.97.17.91-.01,1.75-.53,2.51-.33.48-.69.95-1.08,1.38-.66.74-1.08,1.56-.97,2.59.04.4-.03.8-.17,1.19-.84,2.39.45,4.85,2.85,5.71.72.26,1.38.27,2.1.28,3.11.06,6.21.27,9.29.7,1.2.16,2.4.3,3.58.51,1.1.19,1.36.49,1.55,1.54.03.14.03.29.06.43.24,1.03.91,1.44,1.95,1.22.73-.15,1.36-.53,2.01-.86,2.39-1.22,4.94-1.52,7.58-1.29,2.19.19,4.34.68,6.5,1.06,1.96.34,3.92.54,5.88,0,2.66-.74,4.6-2.2,5.07-5.12.21-1.29,1.03-2.08,2.24-2.46,1.34-.41,2.71-.43,3.96.21,1.12.57,2.37.93,3.24,1.95.41.49.82.4,1.14-.16.24-.41.37-.87.56-1.31.53-1.25,1.27-1.45,2.38-.65.53.38.98.28,1-.35,0-.14.01-.28.02-.42.13,0,.26-.02.39-.05.65-.14,1.31-.14,1.95-.04.62.1,1.23.14,1.85.16.16-.03.33-.04.48-.1.29-.13.54-.13.84.02.32.15.5.08.67-.2.31-.54.65-1.06,1.06-1.53.16-.19.21-.47.32-.71.27-.61.52-.73,1.15-.57.38.1.75.23,1.13.31.75.16,1.48.17,2.14-.34.5-.39,1.04-.35,1.55,0,.16.11.32.23.48.34.15.1.22.24.22.42,0,.26-.03.52-.06.78-.01.1-.11.21-.08.28.26.56-.11.99-.27,1.46l.03.02c.36-.01.51-.24.57-.56.04-.21.19-.39.4-.35.57.1,1.09-.1,1.62-.22.26-.06.46-.02.57.22.13.28.29.49.62.56.24.05.36.28.42.51.07.28.11.57.16.85.33.05.56-.19.82-.29.35-.13.46-.12.67.18.39.57.76,1.14,1.14,1.72.41.63.77,1.29,1.24,1.88.34.42.31.73-.15.99-.69.4-.73.93-.5,1.58.07.2.08.38,0,.57.45.83,1.05,1.49,1.98,1.79.75.24,1.51.44,2.31.41.39-.02.79,0,1.18,0,.34-.01.65.06.95.2,1.05.46,2.11.89,3.11,1.47.4.23.84.4,1.29.45.5.05.96.2,1.4.42.33.17.67.28,1.04.22.67-.11,1.31,0,1.92.24.31.12.57.11.82-.1.4-.33.88-.4,1.39-.38.79.02,1.57.03,2.36.03.85,0,1.7.02,2.52.33.06.02.13.03.19.04.22.03.38-.09.39-.33.02-.33.02-.65.02-.98,0-9.08,0-18.16,0-27.24Zm-42.65-1.21c-.18-.73-.14-.98.33-1.03-.1.35-.21.69-.33,1.03Zm-1.12-9.97c.06.04.13.06.19.08-.23.01-.46,0-.7-.08.16-.08.35-.1.51,0Zm-2.39.42c-.16.05-.33.1-.5.15.16-.08.33-.12.5-.15Zm-.85.42s.02-.02.03-.03c.14.34.26.63.36.94.06.19.1.35.12.5,0-.03-.02-.05-.03-.08-.12-.31-.35-.55-.55-.81-.15-.19-.09-.35.07-.52Zm.37,1.95c.06-.05.1-.1.13-.16-.08.32-.34.55-.84.77-.03.02-.07.03-.1.04.27-.22.54-.44.81-.66Zm-25.63-10.58c-.05.1-.08.2-.09.3-.01-.23.04-.48.19-.73,0,.14-.03.29-.1.43Zm11.31,10.41c-.33-.13-.65-.23-.96-.2.21-.08.44-.09.71-.01.09.03.19.05.29.03.08-.01.16-.06.2-.13-.01.08-.02.17-.03.27-.07.01-.15.05-.21.03Zm.28-.58c-.02-.11-.06-.22-.08-.33-.03-.18.03-.32.21-.39.03-.01.06-.02.08-.03-.1.2-.16.44-.21.76Zm.91-1.35c.04-.09.09-.17.19-.22.31-.15.63-.11,1.02-.09,0,.07-.01.14-.02.21-.03-.07-.05-.13-.08-.2-.48.1-.83.19-1.11.3Zm10.99,14.76c-.4-.04-.8-.09-1.2-.14-.35-.05-.65-.22-.8-.52-.31-.66-.52-1.36-1.12-1.85-.17-.14-.15-.42-.06-.62.34-.78.08-1.28-.6-1.76-.65-.46-.58-.92.07-1.39.21-.15.46-.25.63-.43.56-.6,1.18-.65,1.9-.34,1.03.45,2.06.41,3.1.02.21-.08.42-.15.63-.19.73-.13,1.38.26,1.43.99.06.84.51,1.47.83,2.25.39-.27.71-.47,1.02-.69-.09.21-.17.43-.27.64-.26.57-.55,1.1-.98,1.56-.49.52-.96,1.05-1.58,1.44-.68.43-1.14,1.14-1.81,1.6-.22-.33-.6-.5-1.19-.56Zm4.54,5.16s0-.02,0-.03c0,0,0,.02,0,.03,0,.07,0,.13-.02.19,0-.06,0-.13.02-.19Zm-3.24-2.4c.07-.34.13-.69.14-1.04.15.35.2.71.06,1.1-.09.25-.09.52-.05.78,0,.04.02.07.03.11-.02-.03-.04-.06-.06-.09-.15-.26-.17-.54-.12-.85Zm2.38,1.03c-.34-.16-.67-.39-1.01-.36.12-.11.24-.2.42-.12.39.18.92.22,1.03.74-.12-.1-.27-.19-.43-.27Zm4.49-2.27c-.66.27-1.3.61-2.05.56-.1,0-.19.02-.29.04-.81.14-.83.13-1.15-.63-.08-.18-.14-.36-.2-.55-.19-.59.04-.96.64-1.03.06,0,.13,0,.39,0-.03,0,.14-.01.29.04.71.24,1.4.25,2.08-.13.25-.14.45-.04.57.19.12.23.2.48.2.75,0,.36-.11.62-.47.77Zm17.27-25.7c-.22.13-.46.26-.7.36-1.45.63-2.77,1.48-4.06,2.38-1.55,1.09-3.09,2.21-4.66,3.27-1.96,1.32-3.95,2.58-5.93,3.86-.73.47-1.34,1.06-1.66,1.89-.23.61-.44,1.23-.63,1.85-.08.25-.09.51-.14.77l.05.04c.07-.07.14-.13.2-.2.4-.45.46-.46.96-.11.11.07.22.14.32.22.21.15.27.35.18.6-.07.18-.13.37-.2.55-.25.6-.44.72-1.02.69-.51-.03-.68-.2-.84-.88,0-.03,0-.05-.01-.08-.09.09-.16.2-.21.31v-6.1c.17.35.32.71.25,1.13-.05.34.05.65.34.87.07-.11.15-.22.19-.34.21-.54.61-.91,1.09-1.21,1.08-.68,2.12-1.44,3.21-2.1,2.3-1.4,4.47-2.98,6.68-4.5,1.32-.91,2.61-1.87,3.99-2.69.74-.43,1.54-.73,2.31-1.08.17-.07.36.02.4.17.04.15,0,.27-.13.34Z"/><path class="cls-3" d="m375.37,113.06s0,.01,0,.02c0,0,0,0,0,0h0Z"/><path class="cls-3" d="m416.76,162.11c0-.33-.03-.65-.04-.98-.3-.13-.7-.14-.76-.59l-.05-.04c-.73-.09-1.32-.48-1.91-.88-.16-.11-.29-.27-.49-.29-.87-.08-1.68-.49-2.57-.43-.15,0-.32-.05-.46-.11-.17-.07-.22-.23-.22-.4l-.06-.06c-.32.06-.57-.12-.83-.25-.47-.24-.94-.46-1.47-.53-.4-.06-.68-.27-.78-.65-.1-.38-.34-.53-.69-.6-.86-.18-1.66-.59-2.57-.56-.25,0-.51-.1-.76-.17-.47-.13-.94-.27-1.41-.41-.5-.15-1.01-.27-1.31-.77-.14-.23-.39-.22-.62-.17-.33.08-.58.29-.84.49-.7.55-1.46.33-1.75-.52-.07-.21-.09-.45-.09-.67,0-.31-.16-.46-.45-.56-.28-.1-.57-.16-.86-.17-.53,0-.89-.3-1.03-.77-.16-.57-.52-.87-1.02-1.1-.35-.17-.67-.4-1-.61-.15-.09-.21-.25-.2-.42l-.05-.05c-.08,0-.12-.05-.13-.13l-.07-.06c-.24.03-.44-.07-.63-.2-.53-.37-1.08-.72-1.71-.92-.47-.14-.87-.44-1.21-.81-.29-.31-.58-.63-.91-.89-.59-.47-1.24-.84-2-.95-.02,0-.05-.05-.05-.08,0-.03.03-.06.05-.08-.17-.67.11-1.13.65-1.49.11-.07.24-.12.32-.22.58-.6.41-.96-.2-1.17-1.11-.39-1.97-1.1-2.67-2.03-.41-.54-.86-1.06-1.29-1.59-.11-.07-.21-.17-.33-.2-.6-.16-1.19-.36-1.69-.76-.17-.14-.41-.19-.63-.26-.45-.15-.83-.37-1.07-.81-.07-.14-.19-.28-.33-.35-.8-.37-1.53-.9-2.42-1.05-.25-.04-.51-.13-.74-.26-.4-.22-.79-.24-1.22-.1-.31.1-.65.12-.95.24-.6.24-1.16.13-1.71-.11-.36-.16-.7-.35-1.05-.53-.05-.03-.1-.11-.1-.15.02-.13.13-.11.21-.08.39.16.79.31,1.17.5.44.21.87.25,1.33.08.31-.11.63-.17.94-.28.53-.2,1.01-.08,1.52.11.79.3,1.6.53,2.4.79.04-.25-.11-.57.23-.73-.08-.35-.34-.58-.63-.71-1.12-.48-2.25-.92-3.5-.48-.41.14-.82.17-1.25.05-.27-.08-.6-.13-.84.1-.33.31-.62.27-.95,0-.17-.15-.39-.24-.58-.36-.52-.19-1-.23-1.47.16-.31.26-.48.49-.39.91.07.32.05.65.06.98,0,.13,0,.26-.04.39-.06.2-.2.34-.41.36-.18.01-.32-.09-.39-.24-.19-.38-.37-.76-.55-1.14-.17-.36-.31-.46-.67-.41-.16.02-.34.04-.47.12-.41.26-.86.39-1.32.48.09-.07.17-.16.23-.28-1.11-.73-2.21-1.06-3.34-1-1.7.09-3.03.98-3.29,2.77-.27,1.9-1.47,3.22-3.1,4.17-2.28,1.34-4.75,1.39-7.25,1.06-2.25-.3-4.47-.8-6.72-1.09-3-.39-5.92-.17-8.62,1.41-.44.26-.92.48-1.41.61-1.5.4-2.51-.27-2.74-1.8-.15-1.01-.4-1.28-1.36-1.41-4.53-.61-9.07-1.23-13.66-1.09-2.53.08-5.03.39-7.48,1.07-1.41.4-2.63,1.08-3.61,2.19-.46.52-.94,1.03-1.45,1.5-.58.55-1.25.85-2.08.8-.86-.05-1.02.08-1.04.98-.03,1.46-.81,2.39-2.02,3.03-.35.19-.74.32-1.12.44-1.09.35-2.23.39-3.36.51-1.5.16-2.86.57-3.81,1.87-.37.51-.87.91-1.52,1.02-1.03.18-1.65.84-2.16,1.71-1.41,2.44-3.54,3.64-6.36,3.56-.91-.03-1.6.23-2.16,1.01-.8,1.11-1.47,1.15-2.6.33-.44-.32-.85-.7-1.33-.96-.66-.36-1.11-.14-1.37.57-.28.77,0,1.56.7,2,.71.44,1.51.53,2.32.59.29.02.57,0,.79.28,1.25,1.56.58,3.8-1.33,4.27-2.06.5-4.14.93-6.22,1.39-1.58.35-3.16.53-4.82.04-.16,1.41-1.06,2.17-2.17,2.76-.32.17-.63.37-.96.53-.94.47-1.39,1.26-1.53,2.27-.04.29-.05.59-.14.86-.31.99-.96,1.17-1.72.48-.19-.17-.34-.38-.5-.58-.54-.69-1.08-1.38-1.71-2.19-.84.9-1.78.94-2.78.56-.38-.14-.78-.22-1.18-.21-.78.02-.95.2-.99.98-.03.66.11,1.31.13,1.97.11,3.62.2,7.24.08,10.86-.05,1.42-.17,2.85-.37,4.26-.4,2.94-.9,5.86-1.3,8.8-.3,2.23-.23,4.46.38,6.64.21.76.46,1.52.98,2.17,1.07-.71,2.21-1.1,3.34-1.5,5.03-1.77,10.27-2.64,15.51-3.53.62-.1,1.24-.16,1.86-.12,1.27.08,1.29.09,1.03-1.1-.19-.86.02-1.63.57-2.26.66-.77,1.58-1.28,2.39-1.82,1.38-.92,3.53,0,4.21,1.54.15.33.28.68.45,1,.49.87,1.01,1.08,1.99.87.5-.11.99-.23,1.52-.14,2.8.49,5.38-.16,7.77-1.63.69-.42,1.33-.53,2.04-.06.53.35,1.13.52,1.78.4,1.25-.24,2.47-.15,3.68.22.85.26,1.1.08,1.07-.79-.03-.83.12-1.59.53-2.32.1-.19.18-.38.22-.59.18.48.38.96.69,1.38.38-.37.82-.51,1.35-.46.33.03.66.03.98.03.4,0,.76.11,1.14.24.7.25,1.28.64,1.78,1.18.25.26.5.52.77.76.19.17.4.36.64.45.67.25,1.35.35,1.89-.28.22-.26.52-.39.81-.55.27-.14.56-.32.62-.6.19-.87.75-1.33,1.54-1.6.15-.05.28-.16.43-.24.24-.14.51-.16.77-.1.54.14,1.04.35,1.32.92.4.79.85,1.55,1.28,2.32.27.49.57.95,1.08,1.25.23.13.4.32.52.57.6,1.29.99,2.63,1.16,4.04.09.68.13,1.37.26,2.04.08.44.17.92.51,1.26.31.31.49.69.7,1.07.14.26.29.52.49.73.36.39.64.83.9,1.28.25.42.51.84.79,1.24.31.44.84.54,1.16.17.68-.77,1.54-1.33,2.25-2.05.53-.53,1.05-1.09,1.61-1.59.61-.55,1.26-1.05,1.89-1.57.33-.27.7-.33,1.11-.26,1.1.17,2.2.33,3.32.35.2,0,.4,0,.59.05.91.24,1.82.19,2.74.12.33-.03.66-.07.94-.24.6-.36,1.22-.4,1.89-.21.62.17,1.23.14,1.79-.25.25-.17.51-.23.84-.15.41.1.85.1,1.27-.02.82-.24,1.64-.46,2.44-.74.77-.28,1.11-.89,1.08-1.69-.01-.24-.09-.45-.19-.66-.25-.5-.4-1.04-.51-1.59-.16-.83-.36-1.67.09-2.48.05-.08.05-.19.08-.28.21-.76.71-1.23,1.47-1.44.09-.03.19-.05.29-.07.4-.08.74-.25,1.04-.53.51-.47,1.15-.75,1.73-1.13.28-.18.49-.12.66.16.27.45.49.93.63,1.44.23.82.44,1.65.66,2.47.12.44.24.89.45,1.3.56,1.04,1.11,2.08,1.67,3.12.34.63.51.69,1.18.48,1.63-.51,3.26-1,4.87-1.55.83-.28,1.66-.58,2.42-1.08.47-.31,1.05-.5,1.59-.34.66.18,1.38.08,1.99.46.15.09.41.14.57.08.63-.23,1.3-.07,1.95-.23.57-.14,1.15-.19,1.74.03.36.13.78.09,1.17,0,.19-.04.38-.11.57-.11.45,0,.83-.16,1.18-.42.35-.26.75-.36,1.16-.49.79-.24,1.34-.08,1.74.64.21.38.53.66.95.83.24.1.46.26.7.35.61.23,1.05.67,1.44,1.15.22.28.36.63.61.88.28.27.71.3,1.04.52.94.63,1.96.84,3.09.49.62-.2,1.26-.37,1.92-.07.14.06.33.04.49.01.47-.08.81.07,1.11.45.41.53.99.72,1.66.71.23,0,.48-.03.68.05.75.3,1.4.14,2.03-.31.46-.33.95-.4,1.49-.18.48.2.97.41,1.47.54.76.18,1.54.29,2.26-.21.31-.21.66-.29,1.03-.21,1.02.24,2.05.45,2.91,1.12.39.3.83.54,1.2.85.55.45,1.18.72,1.85.88.67.17,1.3.43,1.95.65.5.17.99.32,1.52.38.23.03.46.06.67.13.82.26,1.67.3,2.53.3.73,0,1.43-.03,2.08-.44.44-.28.95-.29,1.42-.08.99.43,1.98.89,2.72,1.72.13.15.28.27.43.4.11.09.27.01.28-.13.01-.29.02-.59.02-.89,0-16.61,0-33.21-.01-49.82Z"/></g><g id="_26CfV1"><path class="cls-6" d="m344.83,84.32l1.22-2.79c-.27,1.1.54.98,1.15,1.06.95.12,1.9.22,3.06.35-.8-.82-1.41-1.6-2.18-2.17-.44-.33-1.14-.33-1.79.32.49-1.13.89-2.03,1.29-2.94-.18.84.31.99.99,1.06.99.1,1.98.26,3.13.42-.96-1.07-1.94-1.86-2.88-2.69-.06-.05-.17-.05-.25-.08-.15-.05-.31.28-.41.05-.11-.25.07-.51.26-.67.21-.18.37-.01.53.15,1.38,1.43,2.91,2.7,4.36,4.06.17.16.54.3.39.58-.13.25-.48.09-.72.07-1.37-.11-2.74-.25-4.22-.39.85,1.08,1.85,1.87,2.71,2.78.28.3.89.58.74.92-.16.38-.75.09-1.15.06-1.7-.13-3.4-.27-5.1-.43-.4-.04-.73,0-.99.33l-.13-.06Z"/><path class="cls-6" d="m328.33,26.62c.44.81,1.27,1.01,2.02,1.34,1.17.52,2.35,1.04,3.53,1.56.14.06.37.06.38.25.02.26-.23.25-.4.3-1.88.56-3.77,1.1-5.65,1.66-.1.03-.2.07-.42.15,1.36.59,2.62,1.13,3.86,1.7.37.17.55-.12.9-.29-.23.54-.44,1-.68,1.55.02-.74-.5-.92-1.02-1.13-.91-.38-1.83-.73-2.69-1.21-.81-.46-1.57-.43-2.37-.09.28-.64.56-1.29.84-1.93,1.66-.45,3.31-.91,4.97-1.36-1.27-.51-2.3-1.6-3.78-1.34l.51-1.16Z"/><path class="cls-6" d="m402.34,64.37c-.69-.3-1.39-.61-2.08-.91,1.46-.05,2.84-.14,2.91-2.09.16,0,.23-.12.31-.24.11.06-.04.27.16.27l-.28.64c-.1,0-.1.06-.06.13-.32.73-.64,1.46-.96,2.19Z"/><path class="cls-6" d="m383.26,9.07c-.02.21.16.3.28.35.79.36.85.87.43,1.59-.32.54-.53,1.14-.79,1.71-.08-.03-.16-.07-.24-.1.72-1.12.76-2.22-.15-3.26-.15-.17-.14-.33-.05-.51l.52.23Z"/><path class="cls-6" d="m403.3,62.18c-.05-.07-.04-.12.06-.13l-.06.13Z"/><path class="cls-6" d="m395.91,59.19c-2.39-.18-4.67-.36-6.95-.54-1.05-.08-2.1-.16-3.14-.26-.35-.03-.62.02-.82.36-2.62,4.35-6.52,7.13-11.15,9.01-4.64,1.89-9.39,2.23-14.23.94-.41-.11-.69-.03-.98.28-2.05,2.24-4.12,4.47-6.18,6.7-.24.26-.47.51-.72.78-.2-.25-.08-.51-.07-.75.22-3.15.44-6.3.68-9.44.04-.47-.07-.75-.5-1.01-3.23-2.03-5.6-4.84-7.37-8.19-2.77-5.25-3.66-10.76-2.32-16.58.09-.4.04-.67-.3-.97-2.41-2.18-4.79-4.39-7.18-6.59-.16-.15-.32-.3-.49-.47.22-.21.43-.13.63-.11,3.15.25,6.29.48,9.43.77.69.06,1.12-.11,1.49-.7,1.56-2.5,3.58-4.57,6.05-6.15,5.79-3.71,12.02-5.18,18.82-3.58.41.1.6-.08.83-.33,2.14-2.32,4.28-4.64,6.42-6.96.15-.16.3-.33.58-.62-.08,1.11-.14,2.05-.21,3-.18,2.35-.34,4.71-.54,7.06-.04.5.05.81.52,1.08,6.57,3.87,12.76,14.06,10.11,24.91-.21.87,0,1.42.64,1.99,2.17,1.92,4.29,3.9,6.43,5.86.15.14.3.28.53.51Zm-49.27-7.07l-.09.04s.04.02.05.01c.02-.01.03-.03.04-.05.04.01.1.05.13.04,1.92-.74,3.84-1.48,5.77-2.22.32-.12.31-.28.07-.5-.66-.6-1.31-1.2-1.95-1.82-.33-.31-.51-.23-.77.12-.8,1.09-1.65,2.16-2.47,3.24-.28.37-.64.69-.78,1.15Zm5.93,20.94c.25-.14.27-.33.34-.49,3.62-8.29,7.23-16.58,10.84-24.87.15-.33.26-.61-.04-.95-.35-.39-.64-.13-.94-.02-2.6,1-5.19,2.04-7.8,3.02-.57.21-.77.51-.81,1.1-.43,6.16-.89,12.32-1.34,18.48-.09,1.23-.17,2.45-.25,3.73Zm24.09-55.09c-.22-.03-.27.11-.34.19-5,5.4-10,10.81-15.01,16.21-.3.32-.21.56-.08.87,1.1,2.79,2.18,5.58,3.28,8.36.1.25.11.59.48.62.43.03.44-.36.55-.62,3.51-8.09,7.02-16.19,10.53-24.29.19-.44.38-.88.59-1.34Zm-39.28,15.31c.16.12.18.14.2.14,8.56,3.73,17.12,7.46,25.68,11.19.21.09.43.23.65.02.22-.22.07-.43-.02-.65-1.08-2.77-2.19-5.52-3.24-8.3-.21-.56-.51-.73-1.07-.77-4.22-.29-8.44-.61-12.66-.93-3.12-.23-6.24-.46-9.55-.71Zm15.97,40.17s.09.06.14.09c.06-.06.12-.12.18-.18,4.98-5.43,9.95-10.86,14.94-16.28.3-.33.26-.58.12-.94-1.06-2.63-2.09-5.26-3.16-7.89-.12-.31-.09-.78-.65-.78-.51,0-.5.44-.62.73-2.66,6.12-5.3,12.25-7.95,18.37-1,2.3-2.01,4.59-3.01,6.88Zm39.43-15.91c-.2-.21-.27-.3-.35-.37-5.37-4.97-10.74-9.94-16.1-14.93-.32-.29-.56-.3-.93-.16-2.72,1.07-5.46,2.11-8.18,3.17-.25.1-.57.13-.57.52,0,.39.34.4.58.5,3.57,1.6,7.13,3.2,10.71,4.78,4.88,2.15,9.78,4.28,14.84,6.49Zm-.34.67s0-.05.01-.07c-1.72-.75-3.43-1.5-5.15-2.25-6.78-2.95-13.57-5.89-20.36-8.83-.23-.1-.47-.35-.75-.04-.25.28-.08.53.02.78,1.04,2.63,2.1,5.26,3.12,7.9.21.55.49.78,1.1.83,5.69.42,11.37.87,17.06,1.31,1.65.13,3.3.25,4.95.37Zm-14.95-39.87s-.09-.02-.13-.03c-.05.1-.11.2-.16.31-3.68,8.44-7.36,16.88-11.03,25.32-.08.18-.29.37-.1.57.18.18.4.02.59-.05,2.86-1.11,5.72-2.23,8.59-3.31.45-.17.51-.46.54-.86.4-5.27.81-10.54,1.22-15.82.16-2.04.32-4.09.48-6.13Zm-40.09,15.86c-.03.06-.05.11-.08.17,1.25,1.15,2.51,2.31,3.76,3.46,4.06,3.74,8.13,7.47,12.18,11.22.36.33.66.39,1.12.2,1.33-.57,2.69-1.08,4.04-1.62,1.48-.59,2.96-1.18,4.43-1.78.17-.07.44-.08.45-.28.02-.27-.3-.23-.46-.34-.06-.04-.13-.06-.19-.08-6.49-2.81-12.99-5.61-19.48-8.43-1.93-.84-3.85-1.68-5.78-2.53Zm45.03,23.96c-2.62-.2-5.08-.38-7.55-.58-.35-.03-.43.11-.47.42-.13.9-.3,1.79-.46,2.69-.26,1.53-.51,3.07-.79,4.73,3.82-1.54,6.84-3.88,9.26-7.26Zm2.57-19.9c-.1.08-.17.12-.21.17-1.48,1.96-2.95,3.92-4.45,5.86-.27.35-.05.49.16.68,1.69,1.54,3.38,3.09,5.08,4.63.11.1.2.27.43.17.79-3.92.39-7.74-1-11.51Zm-24.08,28.33c3.99.89,7.74.54,11.54-.89-2.06-1.58-4.02-3.09-5.98-4.59-.28-.22-.48-.13-.71.13-.63.72-1.29,1.41-1.94,2.12-.94,1.03-1.88,2.07-2.91,3.22Zm-15.41-12.96c.74,3.01,4.68,8.07,7.09,9.13.18-2.46.36-4.9.55-7.34.02-.27-.11-.37-.35-.41-2.41-.45-4.81-.91-7.29-1.38Zm23.69-28.84c-4.05-.86-7.83-.46-11.66,1.02,2.11,1.56,4.1,3.02,6.08,4.5.26.19.37.06.52-.09,1.66-1.78,3.31-3.55,5.06-5.42Zm8.37,3.74c-.06.08-.11.11-.11.15-.2,2.33-.39,4.66-.59,6.99-.03.34.17.37.41.42,1.08.19,2.17.38,3.25.57,1.32.24,2.64.47,4.06.73-1.55-3.68-3.85-6.61-7.02-8.85Zm-29.54,4.72c.15.06.23.11.32.12,2.24.17,4.48.33,6.71.51.33.03.39-.13.43-.4.11-.69.23-1.38.36-2.07.3-1.66.6-3.32.91-5.1-3.54,1.62-6.44,3.83-8.74,6.94Zm-2.91,19.47c1.51-1.95,2.96-3.83,4.42-5.69.28-.36-.05-.46-.21-.6-1.51-1.39-3.03-2.78-4.55-4.15-.13-.12-.22-.36-.44-.28-.19.08-.16.32-.18.5-.38,2.37-.34,4.74.11,7.1.19,1.03.43,2.05.84,3.12Zm32.59-26.26c-.39.88-.04,1.35.62,1.81,2.41,1.65,4.34,3.77,5.73,6.35,2.61,4.86,3.82,9.98,2.62,15.5-.08.37.03.59.3.84.4.38.62.44.71-.2.09-.65.25-1.29.34-1.93.96-6.49-.98-12.2-4.77-17.38-1.49-2.04-3.36-3.67-5.55-4.97Zm-7.32-3.09c-.16-.05-.27-.09-.38-.12-8.45-2.04-18.98,2.15-23.71,9.41-.29.44-.22.58.3.62.35.02.56-.09.75-.37.99-1.46,2.18-2.75,3.56-3.84,5.25-4.13,11.14-6.01,17.82-4.96.77.12,1.24,0,1.64-.74Zm13.96,35.02c-1.05-.21-1.07-.22-1.67.61-2.28,3.16-5.24,5.44-8.83,6.93-4.2,1.75-8.53,2.48-13.03,1.4-.66-.16-.84.27-1.16.63,7.34,3.17,21.7-2.42,24.68-9.57Zm-31.97,6.35q.16-.93-.46-1.38c-6.46-4.68-9.93-13.54-8.36-21.41.14-.71-.06-1.09-.68-1.38-2.68,9.88,3.03,20.44,9.5,24.16Zm5.89-37.57c-.08.04-.16.08-.24.13.39.92.79,1.83,1.16,2.75.46,1.13.89,2.26,1.34,3.39.07.18.13.56.45.22.75-.8,1.47-1.63,2.22-2.43.2-.22.13-.37-.07-.51-1.64-1.15-3.28-2.31-4.86-3.54Zm-11.46,25.97c1.99.38,3.99.75,5.98,1.13.3.06.41-.02.43-.33.07-1.03.16-2.05.26-3.07.04-.37-.06-.47-.42-.33-2.1.78-4.2,1.58-6.26,2.61Zm36.64-14.28c-.17,0-.24-.03-.3-.01-2.03.79-4.06,1.58-6.09,2.36-.33.13-.32.27-.08.49.72.67,1.44,1.33,2.15,2.02.31.3.51.28.77-.07.68-.92,1.42-1.8,2.1-2.72.49-.65,1.05-1.25,1.46-2.07Zm-26.09-11.21s-.05.02-.06.06c-.37,1.97-.74,3.95-1.11,5.92-.04.23.03.35.28.37,1.16.07,2.31.14,3.48.22-.88-2.24-1.73-4.41-2.58-6.56Zm14.38,36.56s.09-.06.13-.1c-.15-.36-.31-.72-.46-1.08-.65-1.63-1.29-3.25-1.93-4.88-.17-.45-.33-.62-.73-.15-.58.7-1.21,1.35-1.85,2.01-.25.25-.22.4.06.6.55.4,1.07.83,1.61,1.24,1.05.79,2.11,1.58,3.17,2.36Zm11.43-26.16c0-.06,0-.13,0-.19-2.01-.37-4.03-.73-6.04-1.1-.3-.05-.37.08-.38.34-.07,1.05-.14,2.09-.21,3.14-.02.34.12.34.38.24,2.08-.81,4.17-1.62,6.25-2.43Zm-12.95,19.22c.8,2.18,1.6,4.37,2.45,6.69.37-2.13.71-4.12,1.05-6.11.03-.18,0-.34-.23-.34-1.16-.03-2.3-.28-3.28-.23Zm-4.84-12.24c-.48-.21-1.05,0-1.24.46-.19.46.06,1.02.53,1.22.46.19,1.07-.03,1.25-.46.18-.45-.07-1.01-.54-1.21Zm18.19-6.26l-.02-.05-.03.04h.05Z"/><path class="cls-6" d="m382.94,12.62c.08.03.16.07.24.1-.34.79-.69,1.58-1.03,2.36.11-.91-.62-1.02-1.19-1.27-1.09-.48-2.19-.94-3.27-1.44-.56-.26-1.07-.43-1.66.06.29-.65.57-1.31.86-1.96.38-.86.75-1.72,1.13-2.57.09-.2.14-.47.49-.31.48.23.97.43,1.48.65-.2.21-.39.09-.55.08-1-.05-2.02.89-2.08,1.89-.01.27.14.37.34.46.47.21.93.44,1.41.63.25.1.53.47.79.11.25-.36.28-.78-.01-1.18-.2-.27-.55-.41-.68-.85,1.04.46,2,.88,3.03,1.33-.26.2-.49.1-.69.08-.29-.03-.57-.02-.81.15-.24.18-.5.4-.5.72,0,.34.35.33.57.43.49.22,1,.4,1.49.6.23.09.45.11.66-.06Z"/><path class="cls-6" d="m403.48,61.13c-.08.11-.15.23-.31.24-.59-.9-1.23-1.01-2.06-.32-.57.47-1.08,1.03-1.81,1.29-1.46.51-2.81-.58-2.62-2.14.09-.01.17-.02.26-.03.37,1.06,1.08,1.31,1.97.66.37-.27.68-.64,1.03-.94,1.08-.9,2.28-.83,3.16.16.28.32.4.67.37,1.08Z"/><path class="cls-6" d="m397.08,59.3c.16-.51.92-.8.48-1.61.74.32,1.38.6,2.02.88-.82.12-1.69.1-2.3.81-.07-.03-.14-.06-.2-.09Z"/><path class="cls-6" d="m397.08,59.3c.07.03.14.06.2.09-.12.26-.23.52-.35.78-.09.01-.17.02-.26.03.05-.34.19-.64.41-.9Z"/><path class="cls-5" d="m352.57,73.06c.09-1.28.16-2.51.25-3.73.45-6.16.91-12.32,1.34-18.48.04-.59.24-.88.81-1.1,2.61-.98,5.2-2.01,7.8-3.02.3-.12.6-.37.94.02.31.34.19.62.04.95-3.62,8.29-7.23,16.58-10.84,24.87-.07.16-.09.35-.34.49Z"/><path class="cls-5" d="m337.37,33.28c3.31.25,6.43.48,9.55.71,4.22.31,8.44.63,12.66.93.56.04.86.21,1.07.77,1.05,2.78,2.16,5.54,3.24,8.3.08.21.24.43.02.65-.22.21-.44.07-.65-.02-8.56-3.73-17.12-7.46-25.68-11.19-.02,0-.04-.03-.2-.14Z"/><path class="cls-5" d="m392.43,58.21c-1.65-.12-3.3-.24-4.95-.37-5.69-.44-11.37-.9-17.06-1.31-.61-.04-.89-.27-1.1-.83-1.02-2.64-2.08-5.27-3.12-7.9-.1-.25-.27-.5-.02-.78.28-.31.52-.06.75.04,6.79,2.94,13.57,5.88,20.36,8.83,1.72.75,3.43,1.5,5.15,2.25,0,.02,0,.05-.01.07Z"/><path class="cls-5" d="m377.48,18.34c-.16,2.04-.32,4.09-.48,6.13-.41,5.27-.82,10.54-1.22,15.82-.03.4-.09.69-.54.86-2.87,1.09-5.73,2.21-8.59,3.31-.19.07-.41.23-.59.05-.2-.19.02-.39.1-.57,3.67-8.44,7.35-16.88,11.03-25.32.05-.11.1-.21.16-.31.04,0,.09.02.13.03Z"/><path class="cls-5" d="m358.27,27.16c1.58,1.24,3.21,2.39,4.86,3.54.2.14.28.29.07.51-.74.81-1.47,1.63-2.22,2.43-.32.34-.38-.03-.45-.22-.45-1.13-.89-2.27-1.34-3.39-.37-.92-.77-1.84-1.16-2.75.08-.04.16-.08.24-.13Z"/><path class="cls-5" d="m383.45,38.85c-.41.82-.97,1.42-1.46,2.07-.68.92-1.42,1.8-2.1,2.72-.26.35-.46.37-.77.07-.7-.68-1.43-1.35-2.15-2.02-.23-.22-.25-.36.08-.49,2.03-.79,4.06-1.58,6.09-2.36.06-.02.13,0,.3.01Z"/><path class="cls-5" d="m371.74,64.21c-1.06-.79-2.11-1.57-3.17-2.36-.54-.41-1.06-.84-1.61-1.24-.28-.2-.3-.34-.06-.6.63-.65,1.27-1.31,1.85-2.01.4-.48.56-.3.73.15.64,1.63,1.28,3.26,1.93,4.88.14.36.3.72.46,1.08-.04.03-.09.06-.13.1Z"/><path class="cls-5" d="m346.64,52.12c.14-.47.5-.78.78-1.15.82-1.08,1.66-2.14,2.47-3.24.25-.34.44-.43.77-.12.64.62,1.29,1.22,1.95,1.82.24.22.26.37-.07.5-1.92.74-3.84,1.49-5.77,2.22-.03.01-.09-.02-.13-.04h0Z"/><path class="cls-6" d="m365.38,45.02c.47.2.72.77.54,1.21-.18.43-.78.66-1.25.46-.47-.19-.72-.76-.53-1.22.19-.46.75-.67,1.24-.46Z"/><polygon class="cls-6" points="383.57 38.76 383.52 38.76 383.55 38.72 383.57 38.76"/><path class="cls-6" d="m346.63,52.12s-.02.04-.04.05c0,0-.03,0-.05-.01.03-.01.06-.02.09-.04,0,0,0,0,0,0Z"/></g><path class="cls-1" d="m192.85,140.87c-5.98,0-10.82,4.84-10.82,10.82s4.84,10.82,10.82,10.82,10.82-4.84,10.82-10.82-4.84-10.82-10.82-10.82Z"/><path class="cls-12" d="m192.85,139.49c6.74,0,12.21,5.47,12.21,12.21s-5.47,12.21-12.21,12.21-12.21-5.47-12.21-12.21,5.47-12.21,12.21-12.21Zm0,1.39c-5.98,0-10.82,4.84-10.82,10.82s4.84,10.82,10.82,10.82,10.82-4.84,10.82-10.82-4.84-10.82-10.82-10.82Z"/><path class="cls-8" d="m189.39,160.27l-.51-.06-1.48-2.46-2.46-1.48-.06-.51.74-.74c.24-.24.58-.35.92-.31l1.73.25,2.66-3.13-6-3.65-.06-.51.73-.73c.26-.26.62-.37.98-.3l8,1.6,3.23-3.23c.64-.64,1.68-.64,2.32,0h0c.64.64.64,1.68,0,2.32l-3.23,3.23,1.6,8.01c.07.36-.04.72-.3.98l-.72.73-.51-.06-3.65-6-3.13,2.66.25,1.74c.05.34-.07.68-.31.92l-.75.74Zm3.8-6.81l.49.08,3.63,5.97.43-.43c.1-.1.15-.25.12-.39l-1.63-8.22.1-.26,3.35-3.35c.38-.38.38-1.01,0-1.39-.38-.38-1.01-.38-1.39,0l-3.35,3.35-.28.09h-.07s-8.13-1.63-8.13-1.63c-.14-.03-.29.02-.39.12l-.43.43,5.97,3.63.08.49-3.03,3.56-.3.11-1.91-.27c-.13-.02-.27.03-.37.12l-.45.45,2.17,1.3.11.11,1.3,2.17.45-.45c.1-.1.14-.23.12-.37l-.27-1.91.11-.3,3.56-3.03Z"/><path class="cls-12" d="m189.47,160.5l-.72-.09-1.5-2.5-2.5-1.5-.09-.72.82-.82c.29-.29.7-.42,1.1-.37l1.62.23,2.42-2.85-5.87-3.57-.09-.72.8-.8c.31-.31.75-.44,1.18-.36l7.89,1.58,3.15-3.15c.35-.35.82-.54,1.31-.54h0c.5,0,.96.19,1.31.54.35.35.54.82.54,1.31s-.19.96-.54,1.31l-3.15,3.15,1.57,7.9c.09.43-.05.87-.36,1.17l-.8.8-.72-.09-3.57-5.87-2.85,2.42.23,1.62c.06.4-.08.82-.37,1.1l-.82.82Zm-.46-.49l.3.04.67-.67c.19-.19.28-.47.25-.74l-.26-1.85,3.41-2.9,3.73,6.13.3.04.65-.65c.21-.21.3-.5.24-.78l-1.62-8.12,3.31-3.31c.27-.27.42-.63.42-1.01s-.15-.74-.42-1.01c-.27-.27-.63-.42-1.01-.42h0c-.38,0-.74.15-1.01.42l-3.31,3.31-8.12-1.62c-.28-.06-.58.03-.79.24l-.65.65.04.3,6.13,3.73-2.9,3.41-1.85-.26c-.27-.04-.55.05-.74.25l-.67.67.04.3,2.42,1.45,1.45,2.42Zm.17-.15l-1.43-2.38-.07-.08-2.38-1.43.64-.64c.15-.15.35-.22.55-.18l1.85.26.19-.07,2.93-3.44-.05-.3-6.12-3.72.62-.62c.15-.15.37-.22.58-.18l8.14,1.63.18-.06,3.31-3.31c.47-.47,1.23-.47,1.7,0,.47.47.47,1.23,0,1.7l-3.32,3.32-.06.16,1.62,8.16c.04.21-.02.43-.18.58l-.62.63-3.72-6.12-.3-.05-3.44,2.93-.07.19.27,1.86c.03.2-.04.4-.18.55l-.64.64Zm3.95-6.63l.69.11,3.54,5.82.24-.24c.05-.05.07-.12.06-.19l-1.65-8.28.17-.39,3.35-3.35c.3-.3.3-.79,0-1.09-.3-.3-.79-.3-1.09,0l-3.39,3.39-.37.12h-.12s-8.15-1.64-8.15-1.64c-.07-.01-.14,0-.19.06l-.24.24,5.82,3.54.11.69-3.13,3.68-.4.15-1.97-.28c-.07-.01-.13.01-.18.06l-.25.25,1.97,1.19.14.15,1.16,1.93.25-.25s.07-.12.06-.18l-.28-1.97.15-.4,3.68-3.13Z"/><path class="cls-12" d="m136.44,1.25l-.68-.26c-3.27-1.24-6.86-1.32-10.18-.21-5.71,1.8-9.63,7.06-9.71,13.05v.26c0,3.61,1.12,7.12,3.2,10.07l11.64,16.65,11.64-16.65c2.07-2.95,3.19-6.47,3.2-10.07-.07-5.76-3.7-10.87-9.12-12.84Zm-5.72,20.48c-4.37,0-7.91-3.54-7.91-7.91s3.54-7.91,7.91-7.91,7.91,3.54,7.91,7.91-3.54,7.91-7.91,7.91Z"/><rect class="cls-2" x="292.13" y="201" width="111.35" height="100" rx="9.66" ry="9.66"/><path class="cls-10" d="m391.13,266.93c-.86-.68-1.86-1.07-2.75-1.67-2.77-1.88-5.55-3.74-6.47-7.47-.32-3.81-.18-7.71-1.93-11.24-.2-.38-.42-.74-.67-1.09-1.54-2.36-3.83-3.67-6.08-5.03-2.99-2.1-6.3-3.29-9.78-3.99-2-.4-3.94-.95-5.58-2.35-.67-.73-1.3-1.51-1.97-2.25-.24-.28-.46-.56-.68-.85-1-1.13-1.21-2.95-2.75-3.62-.04,0-.08.02-.11.05,0,0,.01-.02.02-.03,0,0-.01,0-.02,0,.11-.08.2-.19.27-.32.27-.86-.01-1.67-.21-2.48-.89-2.82-1.36-5.73-1.54-8.7-.21-1.95-.59-3.87-.28-5.89.48-3.14-.58-4.55-3.5-5.02-.96-.16-1.92,0-2.88.1-.86.11-1.6.46-2.08,1.3-.06.13-.12.25-.18.38-.09.26-.15.53-.17.8,0,.39.05.76.21,1.1.24.46.68.88.3,1.48-1.11,1.16-4.43.3-3.88,3.02-.43-.28-1.14-.13-1.78-.08-2.75,1.31-5.49,2.7-8.61,1.4-.31-.13-.82-.08-1,.21-1.49,2.28-4.19,2.35-6.03,3.88-1.38,1.15-2.46,1.21-3.8.2-.72-.54-1.51-.99-2.34-1.33-.36-.13-.74-.2-1.12-.19-.08.01-.15.02-.23.04-.03,0-.05-.01-.08-.01-1.28.05-2.46-.31-3.33-1.33-1.55-1.81-3.67-2.46-5.68-3.34-.52-.23-1.13-.81-1.67-.2-.46.52-.29,1.24-.06,1.86.22.61.49,1.2.73,1.8.54,1.94,1.46,3.46,3.38,3.88,0,.05,0,.1,0,.15.57,1.91,2.44,2.98,2.83,5.01,1.48.12.39.83.27,1.31-.4.84-.64,1.71-.47,2.67.29,1.1.42,2.2.03,3.3-.12.36-.26.71-.39,1.06-.9,1.25-1.46,2.56-.57,4.11.73.94,1.74,1.19,2.8,1.31.24,0,.46-.04.68-.1.49.2,1.04.12,1.58.08-.01-.26-.07-.48-.16-.65,1.12-.23,1.56.72,1.89,1.89.17.37.43.64.82.74,1.18.15,2.3-.85,3.5-.19.97.95,2.59-.04,3.44,1.3.31.54.54,1.12.86,1.65.21.33.45.62.73.87.49.42,1.06.66,1.68.75,1.54-.06,2.39.88,2.9,2.3.53.95,1.36,1.51,2.24,2.01.33.18.66.35,1,.5.29.2.59.43.92.53,1.82.51,3.8.55,4.71,2.93.34.9,1.59,1.1,2.33.52,1.61-1.26,3.55-.87,5.27-1.49.33-.15.65-.23.94-.22.26.13.53.21.81.24.23.14.44.33.65.58.52.44,1.11.66,1.76.74,2.64-.17,5.27.83,7.84.44,3.32-.5,6.43.91,9.68.62.78-.07,1.09.85,1.46,1.49.55,1,1.48,1.44,2.4,1.89.72.37,1.04.94.74,1.8-.36,1.27-1.32,2.04-2.1,2.96-1.6,2.4-1.21,5.39-2.03,8.02-.53,1.95-1.84,3.28-3.15,4.62-1.84,2.19-4.56,3.71-4.71,7.17.01.05.03.08.05.13-.57.81.15.93.77,1.1.15-.02.29-.03.44-.05.3.1.61.18.88.32.24.1.48.19.72.27,4.39,2.45,8.54,5.48,13.61,6.23.17.01.32.04.48.07.32.48.72.72,1.29.47.21.11.42.23.63.35.35.15.71.24,1.08.27.61.04,1.21.03,1.82-.09.55-.14,1.09-.28,1.65-.08.42.15.82.35,1.17.65.79.65,1.06,1.65,1.53,2.52.32.43.74.73,1.21.94.97.37,1.94.75,2.93,1.04,1.17.26,2.15-.08,2.93-1.06v-26.24c-.57-1.02-1.13-2.05-2.05-2.76Zm-52.34-52.2c.02-.13.03-.24.03-.35.02.04.03.07.05.11.09.2-.08.34-.08.24Z"/><path class="cls-11" d="m352.37,227.38s0,.01-.01.02c0,0,0,0,0,0,0,0,0-.02,0-.02Z"/><text class="cls-9" transform="translate(300.53 295.68)"><tspan x="0" y="0">SUMA</tspan><tspan class="cls-4" x="26.02" y="0">P</tspan><tspan x="31.58" y="0">AZ</tspan></text><path class="cls-3" d="m214.54,89.12c.18-1.71.35-3.35.52-4.99.28-2.73.5-5.47,1.11-8.15.13-.57.31-1.13.43-1.7.1-.45.35-.59.79-.54.88.11,1.74.28,2.38.98,2.55,2.85,5.77,4.82,8.97,6.82,5.61,3.52,11.23,7.04,16.82,10.59,2.11,1.34,4.06,2.88,5.65,4.83.05.06.09.13.15.16,1.14.66.91,1.52.54,2.56-.99,2.75-1.9,5.53-2.33,8.45-.16,1.1-.64,2.09-1.42,2.92-.75.79-1.15,1.77-1.39,2.83-.2.88-.62,1.64-1.3,2.24-.47.42-.55.41-.93-.13-.27-.39-.5-.81-.75-1.21-2.5-3.91-5.39-7.47-9.01-10.41-1.38-1.11-2.91-1.98-4.52-2.68-4.49-1.95-8.37-4.77-11.89-8.15-1.14-1.09-2.2-2.25-3.32-3.36-.33-.33-.57-.67-.49-1.08Z"/><path class="cls-3" d="m246.96,71.69c.6.34,1.05.23,1.46-.07.57-.42,1.15-.39,1.75-.07.54.28,1.1.43,1.68.12.23-.12.43-.31.39-.61-.04-.29-.29-.28-.5-.3-.18-.02-.36-.04-.54-.08-.1-.03-.2-.09-.21-.22,0-.12.03-.2.16-.23.69-.2,1.2-.95,2.11-.57.38.16.84-.15,1.18-.46.4-.36.86-.56,1.4-.51.38.03.73-.08,1.05-.26.75-.42,1.34-.05,1.91.38.34.26.33.64.18,1-.11.27-.27.52-.38.79-.16.41-.17.83.24,1.08.34.21.72.14,1.01-.16.29-.31.6-.46,1.04-.51,1.15-.14,1.8.51,2.26,1.38.29.55.55.82,1.18.56.53-.22.84.05.97.56.3,1.23,1.17,1.69,2.33,1.79.36.03.72.12,1.08.19.45.08.76.19.5.78-.24.54.26.84.59,1.12-.05.42-.38.36-.58.47-.55.31-.57.58-.06.96.03.02.06.04.09.06q1.41.97.36,2.27c-.66.83-1.38,1.62-1.97,2.5-1.47,2.18-3.55,3.32-6.08,3.75-.25.04-.5.11-.75.16-1.27.25-2.12.96-2.39,2.26-.25,1.19-.91,2.05-1.99,2.61-1.26.66-1.95,1.72-2.18,3.11-.06.39-.18.79-.35,1.15-.47.96-1.29,1.08-2.03.32-.33-.34-.61-.73-.93-1.08-2.15-2.35-4.8-4.06-7.47-5.74-6.02-3.78-12.08-7.48-18.04-11.35-1.79-1.16-3.46-2.47-4.88-4.07-.76-.86-1.69-1.38-2.84-1.5-1.03-.11-1.99-.46-2.89-.97-.7-.39-1.42-.75-2.42-.8.5-.44.87-.77,1.25-1.09.55-.46.77-1.04.66-1.76-.27-1.85.17-3.54,1.1-5.14.22-.37.32-.81.49-1.22.21-.5.49-.61.78-.24.63.8,1.4,1.51,1.57,2.6.14.88.53,1.53,1.54,1.54.85.84,2.21.74,3.03,1.65.28.31.69.43,1.11.37.65-.1,1.22.14,1.79.4,1.1.51,2.19,1.02,3.29,1.51.73.33,1.46.67,2.29.16.34-.21.79-.08,1.19,0,.69.13,1.38.17,2.08.15.46-.01.61-.2.34-.62-.09-.14-.29-.29-.09-.46.2-.16.45-.3.7-.12.32.23.6.43.93.01.09-.12.24-.07.39-.02,1.75.61,2.2.44,3.06-1.15.05-.09.12-.17.27-.38.65.82.95,1.72.77,2.64-.22,1.09.05,1.84.95,2.46.56.39.73.99.54,1.66-.3,1.04-.42,2.06-.1,3.13.22.73-.18,1.35-.54,1.95-.34.56-.73,1.09-.86,1.76-.2,1,.09,1.68,1.06,1.99,1.09.35,1.79,1.08,2.41,1.97.46.66.82,1.39,1.49,1.89,1.02.76,2.13,1.18,3.38.12.59-.5.75-.44,1.33.03.31.25.6.54.93.77.88.6,1.54.44,2.13-.46.29-.44.45-.92.45-1.45,0-.47-.04-.95-.05-1.43-.03-.84.16-1.57.87-2.14,1.09-.87,1.15-1.45.4-2.63-.14-.22-.28-.43-.44-.63-.68-.87-.7-1.8-.29-2.79.21-.51.43-1.02.55-1.55.21-.91-.06-1.16-.95-.93-1.52.4-3.03.45-4.56.13-.62-.13-1.19-.37-1.71-.72-.55-.38-.98-.86-.98-1.8Z"/><path class="cls-3" d="m251.94,74.87c.45-.03,1.18-.02,1.9-.19.83-.19.99.01.71.84-.14.41-.32.82-.5,1.22-.39.88-.27,1.71.25,2.5.28.43.58.85.82,1.3.36.69.34,1.08-.27,1.54-1.15.86-1.39,1.98-1.23,3.31.08.62.07,1.25-.24,1.82-.41.76-1.03.91-1.72.39-.29-.22-.53-.51-.82-.73-.64-.49-1.13-.49-1.8-.02-1.23.85-1.99.77-3.08-.27-.59-.57-.99-1.27-1.44-1.94-.5-.76-1.14-1.31-2.01-1.63-1.18-.42-1.45-1.16-.87-2.3.2-.39.44-.76.68-1.13.52-.78.74-1.6.39-2.5-.25-.67-.15-1.31.07-1.93.41-1.18.21-2.16-.82-2.92-.49-.36-.66-.85-.56-1.45.21-1.26-.1-2.4-.82-3.43-.15-.22-.29-.43-.22-.71.2-.78.45-1.56.98-2.18.45-.53.88-.52,1.18.15.35.77,1.16,1.37.93,2.38-.03.14.1.36.21.49.45.53.5,1.06.29,1.73-.22.67.14,1,.87,1.02.34.01.64-.14.96-.19.57-.08.79.17.73.76-.2,1.95.47,2.99,2.33,3.67.91.33,1.85.42,3.09.4Z"/></g></svg>