<?xml version="1.0" encoding="UTF-8"?><svg id="Capa_2" xmlns="http://www.w3.org/2000/svg" viewBox="0 0 95.96 95.95"><defs><style>.cls-1{fill:#fff;stroke-width:0px;}</style></defs><g id="Capa_1-2"><path class="cls-1" d="m95.2,39.99C92.2,20.93,76.79,4.88,57.79,1.08c-2-.4-4.05-.55-6.07-.83-.36-.05-.7-.17-1.05-.25h-5.42c-1.73.25-3.47.47-5.2.75C21.1,3.86,5.77,18.19,1.3,36.94c-5.43,22.76,6.63,46.42,28.18,55.32,25.88,10.68,55.07-2.63,63.98-29.19,1.23-3.67,2.01-7.43,2.26-11.29.03-.44.16-.87.25-1.31v-5.17c-.26-1.77-.49-3.55-.77-5.31Zm-47.32,48.7c-22.46-.03-40.63-18.27-40.6-40.75.03-22.47,18.26-40.63,40.75-40.6,22.47.03,40.63,18.26,40.6,40.75-.03,22.47-18.26,40.63-40.75,40.6Z"/><path class="cls-1" d="m35.11,67.49c-2.37,0-4.42-1.56-4.42-3.68,0-5.24,9.79-6.73,9.79-15.15v-2.8h-10.35v1.93c0,5.55-10.66,7.04-10.66,17.27,0,8.04,7.54,12.22,14.52,12.22,8.35,0,13.03-5.17,13.03-5.17l-5.98-7.29s-2.93,2.68-5.92,2.68Z"/><rect class="cls-1" x="30.37" y="32.08" width="9.85" height="9.35"/><path class="cls-1" d="m61.98,18.68c-8.35,0-13.03,5.17-13.03,5.17l5.98,7.29s2.93-2.68,5.92-2.68c2.37,0,4.43,1.56,4.43,3.68,0,5.24-9.79,6.73-9.79,15.15v3.12h10.35v-2.24c0-5.55,10.66-7.04,10.66-17.26,0-8.04-7.54-12.22-14.52-12.22Z"/><rect class="cls-1" x="55.74" y="54.83" width="9.85" height="9.35"/></g></svg>