<?xml version="1.0" encoding="UTF-8"?><svg id="Capa_2" xmlns="http://www.w3.org/2000/svg" viewBox="0 0 2322.1 2304.73"><defs><style>.cls-1{opacity:.4;stroke-width:4.28px;}.cls-1,.cls-2,.cls-3,.cls-4,.cls-5,.cls-6,.cls-7,.cls-8,.cls-9,.cls-10,.cls-11,.cls-12,.cls-13,.cls-14,.cls-15,.cls-16,.cls-17,.cls-18,.cls-19,.cls-20,.cls-21,.cls-22,.cls-23,.cls-24,.cls-25,.cls-26,.cls-27,.cls-28,.cls-29,.cls-30,.cls-31,.cls-32,.cls-33,.cls-34,.cls-35,.cls-36,.cls-37,.cls-38,.cls-39,.cls-40,.cls-41,.cls-42,.cls-43,.cls-44,.cls-45,.cls-46,.cls-47,.cls-48,.cls-49,.cls-50,.cls-51,.cls-52,.cls-53,.cls-54,.cls-55,.cls-56,.cls-57,.cls-58,.cls-59,.cls-60,.cls-61,.cls-62,.cls-63,.cls-64,.cls-65,.cls-66,.cls-67,.cls-68,.cls-69,.cls-70,.cls-71,.cls-72,.cls-73,.cls-74,.cls-75,.cls-76,.cls-77,.cls-78,.cls-79,.cls-80,.cls-81,.cls-82,.cls-83,.cls-84,.cls-85{fill:none;stroke:#fff;}.cls-1,.cls-2,.cls-3,.cls-4,.cls-5,.cls-7,.cls-8,.cls-9,.cls-10,.cls-11,.cls-12,.cls-13,.cls-14,.cls-15,.cls-16,.cls-17,.cls-18,.cls-19,.cls-20,.cls-21,.cls-22,.cls-23,.cls-24,.cls-25,.cls-26,.cls-27,.cls-28,.cls-29,.cls-30,.cls-31,.cls-32,.cls-33,.cls-34,.cls-35,.cls-36,.cls-37,.cls-38,.cls-39,.cls-40,.cls-41,.cls-42,.cls-43,.cls-44,.cls-45,.cls-46,.cls-47,.cls-48,.cls-49,.cls-50,.cls-51,.cls-52,.cls-53,.cls-54,.cls-55,.cls-56,.cls-57,.cls-58,.cls-59,.cls-60,.cls-61,.cls-62,.cls-63,.cls-64,.cls-65,.cls-66,.cls-67,.cls-68,.cls-69,.cls-70,.cls-71,.cls-72,.cls-73,.cls-74,.cls-75,.cls-76,.cls-77,.cls-78,.cls-79,.cls-80,.cls-81,.cls-82,.cls-83,.cls-84,.cls-85{stroke-miterlimit:10;}.cls-2{opacity:.41;stroke-width:4.58px;}.cls-3{opacity:.5;stroke-width:6.34px;}.cls-4{opacity:.66;stroke-width:9.57px;}.cls-5{opacity:.64;stroke-width:9.13px;}.cls-6{opacity:.24;stroke-miterlimit:10;stroke-width:.91px;}.cls-7{opacity:.51;stroke-width:6.49px;}.cls-8{opacity:.29;stroke-width:2.08px;}.cls-9{opacity:.71;stroke-width:10.6px;}.cls-10{opacity:.49;stroke-width:6.05px;}.cls-11{opacity:.47;stroke-width:5.75px;}.cls-12{opacity:.21;stroke-width:.32px;}.cls-13{opacity:.66;stroke-width:9.72px;}.cls-14{opacity:.33;stroke-width:2.82px;}.cls-15{opacity:.6;stroke-width:8.39px;}.cls-16{opacity:.67;stroke-width:9.86px;}.cls-17{opacity:.78;stroke-width:12.06px;}.cls-18{opacity:.79;stroke-width:12.36px;}.cls-19{opacity:.43;stroke-width:4.87px;}.cls-20{opacity:.61;stroke-width:8.69px;}.cls-21{opacity:.76;stroke-width:11.77px;}.cls-22{opacity:.25;stroke-width:1.2px;}.cls-23{opacity:.22;stroke-width:.61px;}.cls-24{opacity:.53;stroke-width:6.93px;}.cls-25{opacity:.58;stroke-width:7.95px;}.cls-26{opacity:.42;stroke-width:4.72px;}.cls-27{opacity:.27;stroke-width:1.64px;}.cls-28{opacity:.38;stroke-width:3.84px;}.cls-29{opacity:.28;stroke-width:1.79px;}.cls-30{opacity:.32;stroke-width:2.67px;}.cls-31{opacity:.71;stroke-width:10.74px;}.cls-32{opacity:.41;stroke-width:4.43px;}.cls-33{opacity:.23;stroke-width:.76px;}.cls-34{opacity:.37;stroke-width:3.7px;}.cls-35{opacity:.72;stroke-width:10.89px;}.cls-36{opacity:.35;stroke-width:3.26px;}.cls-37{opacity:.62;stroke-width:8.83px;}.cls-38{opacity:.68;stroke-width:10.01px;}.cls-39{opacity:.34;stroke-width:2.96px;}.cls-40{opacity:.69;stroke-width:10.3px;}.cls-41{opacity:.74;stroke-width:11.18px;}.cls-42{opacity:.56;stroke-width:7.51px;}.cls-43{opacity:.8;stroke-width:12.5px;}.cls-44{opacity:.7;stroke-width:10.45px;}.cls-45{opacity:.36;stroke-width:3.55px;}.cls-46{opacity:.52;stroke-width:6.78px;}.cls-47{opacity:.77;stroke-width:11.92px;}.cls-48{opacity:.75;stroke-width:11.48px;}.cls-49{opacity:.61;stroke-width:8.54px;}.cls-50{opacity:.76;stroke-width:11.62px;}.cls-51{opacity:.34;stroke-width:3.11px;}.cls-52{opacity:.65;stroke-width:9.42px;}.cls-53{opacity:.59;stroke-width:8.1px;}.cls-54{opacity:.69;stroke-width:10.16px;}.cls-55{opacity:.51;stroke-width:6.63px;}.cls-56{opacity:.3;stroke-width:2.23px;}.cls-57{opacity:.26;stroke-width:1.35px;}.cls-58{opacity:.54;stroke-width:7.22px;}.cls-59{opacity:.26;stroke-width:1.49px;}.cls-60{opacity:.44;stroke-width:5.02px;}.cls-61{opacity:.59;stroke-width:8.25px;}.cls-62{opacity:.73;stroke-width:11.04px;}.cls-63{opacity:.29;stroke-width:1.93px;}.cls-64{opacity:.44;stroke-width:5.16px;}.cls-65{opacity:.36;stroke-width:3.4px;}.cls-66{opacity:.24;stroke-width:1.05px;}.cls-67{opacity:.46;stroke-width:5.6px;}.cls-68{opacity:.48;stroke-width:5.9px;}.cls-69{opacity:.79;stroke-width:12.21px;}.cls-70{opacity:.39;stroke-width:3.99px;}.cls-71{opacity:.54;stroke-width:7.07px;}.cls-72{opacity:.56;stroke-width:7.66px;}.cls-73{opacity:.57;stroke-width:7.81px;}.cls-74{opacity:.49;stroke-width:6.19px;}.cls-75{opacity:.64;stroke-width:9.28px;}.cls-76{opacity:.31;stroke-width:2.52px;}.cls-77{opacity:.55;stroke-width:7.37px;}.cls-78{opacity:.31;stroke-width:2.37px;}.cls-79{opacity:.2;stroke-width:.17px;}.cls-80{opacity:.39;stroke-width:4.14px;}.cls-81{opacity:.21;stroke-width:.47px;}.cls-82{opacity:.63;stroke-width:8.98px;}.cls-83{opacity:.74;stroke-width:11.33px;}.cls-84{opacity:.45;stroke-width:5.31px;}.cls-85{opacity:.46;stroke-width:5.46px;}</style></defs><g id="Capa_1-2"><ellipse class="cls-79" cx="1161.05" cy="1152.36" rx="15.95" ry="15.83"/><ellipse class="cls-12" cx="1161.05" cy="1152.36" rx="29.51" ry="29.28"/><ellipse class="cls-81" cx="1161.05" cy="1152.36" rx="43.06" ry="42.74"/><ellipse class="cls-23" cx="1161.05" cy="1152.36" rx="56.62" ry="56.2"/><ellipse class="cls-33" cx="1161.05" cy="1152.36" rx="70.18" ry="69.65"/><ellipse class="cls-6" cx="1161.05" cy="1152.36" rx="83.74" ry="83.11"/><ellipse class="cls-66" cx="1161.05" cy="1152.36" rx="97.29" ry="96.56"/><ellipse class="cls-22" cx="1161.05" cy="1152.36" rx="110.85" ry="110.02"/><ellipse class="cls-57" cx="1161.05" cy="1152.36" rx="124.41" ry="123.47"/><ellipse class="cls-59" cx="1161.05" cy="1152.36" rx="137.97" ry="136.93"/><ellipse class="cls-27" cx="1161.05" cy="1152.36" rx="151.53" ry="150.39"/><ellipse class="cls-29" cx="1161.05" cy="1152.36" rx="165.08" ry="163.84"/><ellipse class="cls-63" cx="1161.05" cy="1152.36" rx="178.64" ry="177.3"/><ellipse class="cls-8" cx="1161.05" cy="1152.36" rx="192.2" ry="190.75"/><ellipse class="cls-56" cx="1161.05" cy="1152.36" rx="205.76" ry="204.21"/><ellipse class="cls-78" cx="1161.05" cy="1152.36" rx="219.31" ry="217.67"/><ellipse class="cls-76" cx="1161.05" cy="1152.36" rx="232.87" ry="231.12"/><ellipse class="cls-30" cx="1161.05" cy="1152.36" rx="246.43" ry="244.58"/><ellipse class="cls-14" cx="1161.05" cy="1152.36" rx="259.99" ry="258.03"/><ellipse class="cls-39" cx="1161.05" cy="1152.36" rx="273.55" ry="271.49"/><ellipse class="cls-51" cx="1161.05" cy="1152.36" rx="287.1" ry="284.94"/><ellipse class="cls-36" cx="1161.05" cy="1152.36" rx="300.66" ry="298.4"/><ellipse class="cls-65" cx="1161.05" cy="1152.36" rx="314.22" ry="311.86"/><ellipse class="cls-45" cx="1161.05" cy="1152.36" rx="327.78" ry="325.31"/><ellipse class="cls-34" cx="1161.05" cy="1152.36" rx="341.33" ry="338.77"/><ellipse class="cls-28" cx="1161.05" cy="1152.36" rx="354.89" ry="352.22"/><ellipse class="cls-70" cx="1161.05" cy="1152.36" rx="368.45" ry="365.68"/><ellipse class="cls-80" cx="1161.05" cy="1152.36" rx="382.01" ry="379.13"/><ellipse class="cls-1" cx="1161.05" cy="1152.36" rx="395.57" ry="392.59"/><ellipse class="cls-32" cx="1161.05" cy="1152.36" rx="409.12" ry="406.05"/><ellipse class="cls-2" cx="1161.05" cy="1152.36" rx="422.68" ry="419.5"/><ellipse class="cls-26" cx="1161.05" cy="1152.36" rx="436.24" ry="432.96"/><ellipse class="cls-19" cx="1161.05" cy="1152.36" rx="449.8" ry="446.41"/><ellipse class="cls-60" cx="1161.05" cy="1152.36" rx="463.35" ry="459.87"/><ellipse class="cls-64" cx="1161.05" cy="1152.36" rx="476.91" ry="473.32"/><ellipse class="cls-84" cx="1161.05" cy="1152.36" rx="490.47" ry="486.78"/><ellipse class="cls-85" cx="1161.05" cy="1152.36" rx="504.03" ry="500.24"/><ellipse class="cls-67" cx="1161.05" cy="1152.36" rx="517.58" ry="513.69"/><ellipse class="cls-11" cx="1161.05" cy="1152.36" rx="531.14" ry="527.15"/><ellipse class="cls-68" cx="1161.05" cy="1152.36" rx="544.7" ry="540.6"/><ellipse class="cls-10" cx="1161.05" cy="1152.36" rx="558.26" ry="554.06"/><ellipse class="cls-74" cx="1161.05" cy="1152.36" rx="571.82" ry="567.51"/><ellipse class="cls-3" cx="1161.05" cy="1152.36" rx="585.37" ry="580.97"/><ellipse class="cls-7" cx="1161.05" cy="1152.36" rx="598.93" ry="594.43"/><ellipse class="cls-55" cx="1161.05" cy="1152.36" rx="612.49" ry="607.88"/><ellipse class="cls-46" cx="1161.05" cy="1152.36" rx="626.05" ry="621.34"/><ellipse class="cls-24" cx="1161.05" cy="1152.36" rx="639.6" ry="634.79"/><ellipse class="cls-71" cx="1161.05" cy="1152.36" rx="653.16" ry="648.25"/><ellipse class="cls-58" cx="1161.05" cy="1152.36" rx="666.72" ry="661.71"/><ellipse class="cls-77" cx="1161.05" cy="1152.36" rx="680.28" ry="675.16"/><ellipse class="cls-42" cx="1161.05" cy="1152.36" rx="693.84" ry="688.62"/><ellipse class="cls-72" cx="1161.05" cy="1152.36" rx="707.39" ry="702.07"/><ellipse class="cls-73" cx="1161.05" cy="1152.36" rx="720.95" ry="715.53"/><ellipse class="cls-25" cx="1161.05" cy="1152.36" rx="734.51" ry="728.98"/><ellipse class="cls-53" cx="1161.05" cy="1152.36" rx="748.07" ry="742.44"/><ellipse class="cls-61" cx="1161.05" cy="1152.36" rx="761.62" ry="755.9"/><ellipse class="cls-15" cx="1161.05" cy="1152.36" rx="775.18" ry="769.35"/><ellipse class="cls-49" cx="1161.05" cy="1152.36" rx="788.74" ry="782.81"/><ellipse class="cls-20" cx="1161.05" cy="1152.36" rx="802.3" ry="796.26"/><ellipse class="cls-37" cx="1161.05" cy="1152.36" rx="815.85" ry="809.72"/><ellipse class="cls-82" cx="1161.05" cy="1152.36" rx="829.41" ry="823.17"/><ellipse class="cls-5" cx="1161.05" cy="1152.36" rx="842.97" ry="836.63"/><ellipse class="cls-75" cx="1161.05" cy="1152.36" rx="856.53" ry="850.09"/><ellipse class="cls-52" cx="1161.05" cy="1152.36" rx="870.09" ry="863.54"/><ellipse class="cls-4" cx="1161.05" cy="1152.36" rx="883.64" ry="877"/><ellipse class="cls-13" cx="1161.05" cy="1152.36" rx="897.2" ry="890.45"/><ellipse class="cls-16" cx="1161.05" cy="1152.36" rx="910.76" ry="903.91"/><ellipse class="cls-38" cx="1161.05" cy="1152.36" rx="924.32" ry="917.36"/><ellipse class="cls-54" cx="1161.05" cy="1152.36" rx="937.87" ry="930.82"/><ellipse class="cls-40" cx="1161.05" cy="1152.36" rx="951.43" ry="944.28"/><ellipse class="cls-44" cx="1161.05" cy="1152.36" rx="964.99" ry="957.73"/><ellipse class="cls-9" cx="1161.05" cy="1152.36" rx="978.55" ry="971.19"/><ellipse class="cls-31" cx="1161.05" cy="1152.36" rx="992.11" ry="984.64"/><ellipse class="cls-35" cx="1161.05" cy="1152.36" rx="1005.66" ry="998.1"/><ellipse class="cls-62" cx="1161.05" cy="1152.36" rx="1019.22" ry="1011.55"/><ellipse class="cls-41" cx="1161.05" cy="1152.36" rx="1032.78" ry="1025.01"/><ellipse class="cls-83" cx="1161.05" cy="1152.36" rx="1046.34" ry="1038.47"/><ellipse class="cls-48" cx="1161.05" cy="1152.36" rx="1059.89" ry="1051.92"/><ellipse class="cls-50" cx="1161.05" cy="1152.36" rx="1073.45" ry="1065.38"/><ellipse class="cls-21" cx="1161.05" cy="1152.36" rx="1087.01" ry="1078.83"/><ellipse class="cls-47" cx="1161.05" cy="1152.36" rx="1100.57" ry="1092.29"/><ellipse class="cls-17" cx="1161.05" cy="1152.36" rx="1114.13" ry="1105.75"/><ellipse class="cls-69" cx="1161.05" cy="1152.36" rx="1127.68" ry="1119.2"/><ellipse class="cls-18" cx="1161.05" cy="1152.36" rx="1141.24" ry="1132.66"/><ellipse class="cls-43" cx="1161.05" cy="1152.36" rx="1154.8" ry="1146.11"/></g></svg>